<?xml version="1.0" encoding="utf-8"?>
<!-- Generator: Adobe Illustrator 16.0.4, SVG Export Plug-In . SVG Version: 6.00 Build 0)  -->
<!DOCTYPE svg PUBLIC "-//W3C//DTD SVG 1.1//EN" "http://www.w3.org/Graphics/SVG/1.1/DTD/svg11.dtd">
<svg version="1.1"
	 id="GOL_x5F_logo" xmlns:dc="http://purl.org/dc/elements/1.1/" xmlns:cc="http://creativecommons.org/ns#" xmlns:rdf="http://www.w3.org/1999/02/22-rdf-syntax-ns#" xmlns:svg="http://www.w3.org/2000/svg"
	 xmlns="http://www.w3.org/2000/svg" xmlns:xlink="http://www.w3.org/1999/xlink" x="0px" y="0px" width="300px" height="300px"
	 viewBox="30.709 70.571 300 300" enable-background="new 30.709 70.571 300 300" xml:space="preserve">
<g>
	<path fill="#FFFFFF" stroke="#FFFFFF" stroke-miterlimit="10" d="M36.96,281.413c28.288-10.92,56.55-21.83,84.813-32.739
		c0.185,0.341,0.371,0.68,0.556,1.019c-9.758,6.029-17.478,14.111-23.839,23.838c1.773-0.891,3.545-1.782,5.319-2.671
		c23.499-11.772,48-20.356,74.266-23.319c10.343-1.167,20.572-0.829,30.72,1.784c9.135,2.35,10.417,3.746,10.58,13.482
		c0.933-0.548,1.745-0.918,2.437-1.444c18.408-13.986,19.516-38.134,2.234-53.522c-5.331-4.747-11.396-8.664-16.911-13.221
		c-6.065-5.013-12.202-10.011-17.713-15.601c-4.969-5.038-10.253-9.369-16.963-11.551c-17.523-5.698-35.086-11.284-52.69-16.729
		c-20.397-6.308-40.855-12.416-61.282-18.624c-0.904-0.274-1.769-0.674-3.6-1.384c5.172-6.056,9.689-12.044,14.91-17.338
		c23.442-23.768,51.81-37.852,85.039-41.291c47.155-4.883,89.161,7.469,124.111,40.073c26.738,24.941,41.337,56.302,44.741,92.658
		c3.719,39.712-5.548,76.017-30.404,107.632c-22.774,28.967-52.891,46.358-88.763,53.688c-29.026,5.932-58.007,5.58-86.27-4.161
		C79.677,348.693,53.5,322.13,37.63,284.936c-0.285-0.667-0.466-1.38-0.66-2.08C36.908,282.638,36.96,282.389,36.96,281.413z
		 M119.544,117.092c0.083,0.381,0.167,0.764,0.25,1.146c1.205,0.437,2.388,0.945,3.618,1.297c6.062,1.733,12.187,3.271,18.201,5.165
		c15.258,4.801,30.631,9.309,45.636,14.817c8.83,3.243,17.505,7.653,23.287,15.62c4.252,5.858,9.636,10.168,15.716,13.828
		c3.432,2.065,6.838,4.179,10.175,6.391c24.362,16.149,43.38,56.484,16.874,93.315c-12.922,17.959-31.046,28.225-51.774,34.397
		c-6.534,1.946-13.28,3.176-19.931,4.731c0.384-2.414,1.332-3.81,2.032-5.321c2.03-4.392,4.212-8.742,5.833-13.287
		c0.89-2.495,1.005-5.262-2.784-6.287c-9.146-2.476-18.38-3.112-27.777-2.1c-21.934,2.363-42.138,10.046-61.621,19.957
		c-1.248,0.635-2.422,1.415-3.845,2.254c4.51,7.425,10.66,12.527,17.561,16.622c35.372,20.99,72.639,23.108,110.167,7.891
		c68.599-27.817,92.966-112.545,50.66-173.664c-20.096-29.033-48.196-45.168-82.981-49.635c-18.766-2.41-37.363-1.279-55.167,5.851
		C128.807,112.029,124.246,114.733,119.544,117.092z"/>
	<path fill="#FFFFFF" stroke="#FFFFFF" stroke-miterlimit="10" d="M172.421,182.956c0.539,8.678-4.826,15.916-13.709,18.358
		c-12.014,3.305-25.258-3.803-27.545-14.957c-0.501-2.444-0.65-5.141-0.166-7.563c0.737-3.691-0.969-4.251-3.907-4.061
		c-1.274,0.081-2.557,0.013-4.481,0.013c3.784-4.004,8.022-5.426,12.508-4.401c5.027,1.147,9.874,3.161,14.72,5
		c3.732,1.417,7.264,3.383,11.034,4.671C164.505,181.257,168.325,181.939,172.421,182.956z"/>
</g>
</svg>
