<?xml version="1.0" encoding="utf-8"?>
<!-- Generator: Adobe Illustrator 16.0.4, SVG Export Plug-In . SVG Version: 6.00 Build 0)  -->
<!DOCTYPE svg PUBLIC "-//W3C//DTD SVG 1.1//EN" "http://www.w3.org/Graphics/SVG/1.1/DTD/svg11.dtd">
<svg version="1.1"
	 id="BOS_x5F_logo" xmlns:dc="http://purl.org/dc/elements/1.1/" xmlns:cc="http://creativecommons.org/ns#" xmlns:rdf="http://www.w3.org/1999/02/22-rdf-syntax-ns#" xmlns:svg="http://www.w3.org/2000/svg"
	 xmlns="http://www.w3.org/2000/svg" xmlns:xlink="http://www.w3.org/1999/xlink" x="0px" y="0px" width="300px" height="300px"
	 viewBox="30.709 70.571 300 300" enable-background="new 30.709 70.571 300 300" xml:space="preserve">
<g>
	<path fill="#FFFFFF" d="M31.21,229.756c0-6.133,0-12.266,0-18.398c0.218-0.791,0.541-1.569,0.636-2.375
		c0.468-3.985,0.678-8.012,1.336-11.964c5.088-30.577,18.09-57.313,39.627-79.648c24.804-25.722,55.027-40.836,90.585-45.11
		c2.71-0.326,5.403-0.79,8.104-1.189c6.133,0,12.266,0,18.399,0c0.803,0.219,1.592,0.542,2.408,0.638
		c4.084,0.474,8.211,0.673,12.258,1.357c34.107,5.771,63.27,21.046,86.436,46.753c32.396,35.949,44.586,78.329,37.057,125.979
		c-5.016,31.753-19.422,59.18-42.67,81.461c-37.363,35.812-82.039,49.126-132.792,40.057c-36.566-6.534-66.391-25.326-89.422-54.508
		c-17.356-21.993-27.607-47.025-30.792-74.907C32.069,235.177,31.604,232.47,31.21,229.756z M200.052,237.102
		c1.102-1.251,2.094-2.404,3.111-3.533c6.945-7.699,12.244-16.433,15.756-26.155c4.828-13.364,3.184-25.799-6.266-36.772
		c-7.82-9.083-20.16-10.927-29.592-3.622c-4.314,3.342-7.121,3.365-11.939,0.984c-10.792-5.335-21.653-3.034-28.544,8.131
		c-4.577,7.419-5.663,15.341-3.644,23.718c2.508,10.408,8.427,18.977,14.943,27.195c1.99,2.509,4.046,4.965,6.288,7.71
		c-7.63-1.863-14.795-3.861-22.068-5.329c-10.03-2.023-20.167-2.854-30.022,0.853c-9.392,3.532-15.376,10.236-17.1,20.265
		c-1.696,9.875,1.609,17.946,9.663,23.861c2.063,1.515,2.397,2.774,1.689,5.148c-2.911,9.767,0.45,18.922,8.616,23.64
		c7.809,4.511,16.203,5.742,24.92,3.408c10.595-2.837,18.356-10.044,25.771-17.584c3.907-3.975,7.444-8.316,11.476-12.863
		c-0.477,13.099,1.136,25.431,6.07,37.167c4.955,11.789,12.371,21.519,23.757,28.385c0.734-2.476,1.115-4.474,1.912-6.288
		c1.986-4.517,1.928-8.344-2.947-10.972c-0.398-0.215-0.66-0.686-0.982-1.039c-8.957-9.815-13.031-21.669-14.326-34.637
		c-0.4-4.02-0.469-8.072-0.691-12.108c0.408-0.225,0.814-0.449,1.223-0.674c0.574,0.893,0.994,1.948,1.746,2.653
		c7.812,7.341,15.617,14.691,23.549,21.903c6.377,5.799,13.955,8.389,22.615,8.153c16.736-0.452,27.184-15.112,23.158-31.229
		c-0.436-1.741-0.178-2.6,1.207-3.552c3.781-2.602,6.789-5.853,8.354-10.3c3.314-9.425-1.148-22.361-10.203-28.987
		c-10.199-7.466-21.574-8.394-33.369-5.193C216.109,231.629,208.213,234.485,200.052,237.102z M257.5,189.235
		c2.584-1.152,4.82-2.149,7.236-3.228c-0.955-2.225-1.805-4.203-2.77-6.45c-4.502,1.891-8.762,3.681-13.611,5.718
		c1.518,2.444,3.059,4.412,4.029,6.629c1,2.283,1.309,4.86,2.17,7.218c1.256,3.437,6.562,6.074,9.936,4.768
		c5.787-2.243,11.5-4.688,17.172-7.211c2.963-1.316,4.1-4.835,2.855-7.854c-1.254-3.046-2.502-6.095-3.803-9.265
		c5.32-2.222,10.307-4.305,15.48-6.466c1.207,2.901,2.287,5.496,3.422,8.221c-2.51,1.115-4.75,2.113-7.301,3.248
		c0.914,2.208,1.758,4.248,2.664,6.437c4.709-1.98,8.996-3.783,13.434-5.649c-0.441-1.213-0.656-2.266-1.18-3.13
		c-0.723-1.192-2-2.124-2.467-3.38c-0.896-2.415-1.232-5.034-2.09-7.466c-1.1-3.11-7.043-5.787-10.158-4.565
		c-5.332,2.092-10.623,4.301-15.871,6.598c-2.623,1.147-3.846,4.789-2.738,7.476c1.293,3.128,2.605,6.246,3.979,9.531
		c-5.787,2.437-11.227,4.727-16.891,7.111C259.83,194.753,258.728,192.143,257.5,189.235z M104.422,146.228
		c-1.621,1.727-3.096,3.296-4.715,5.021c-4.352-3.807-8.563-7.494-12.92-11.308c1.609-1.774,2.986-3.293,4.405-4.856
		c2.123,1.784,4.005,3.365,6.093,5.119c1.514-1.772,2.894-3.389,4.377-5.125c-3.825-3.331-7.342-6.394-11.061-9.631
		c-5.461,6.264-10.763,12.345-16.175,18.551c1.847,1.587,3.337,2.865,4.887,4.195c1.022-0.947,1.843-1.708,2.782-2.579
		c10.498,9.177,20.91,18.279,31.333,27.392c-0.849,1.178-1.499,2.08-2.238,3.104c1.644,1.398,3.149,2.681,4.864,4.141
		c5.427-6.21,10.691-12.234,16.163-18.496c-3.742-3.259-7.286-6.345-10.962-9.547c-1.561,1.791-2.802,3.217-4.179,4.799
		c1.981,1.808,3.8,3.466,5.821,5.31c-1.528,1.766-2.992,3.458-4.521,5.226c-4.6-4.015-8.985-7.842-13.49-11.774
		c1.49-1.789,2.866-3.442,4.379-5.259C107.555,148.998,106.076,147.69,104.422,146.228z M179.529,139.702
		c-0.758,0.104-1.132,0.232-1.486,0.191c-3.329-0.388-2.365,2.076-2.554,3.794c-0.222,2.039,0.48,3.005,2.714,2.848
		c2.382-0.168,4.786-0.037,7.178-0.037c5.535,0,5.539,0,5.006-5.577c-0.025-0.264-0.215-0.513-0.355-0.831
		c-0.926-0.115-1.85-0.23-3.004-0.375c-0.078-1.314-0.211-2.527-0.213-3.742c-0.014-11.49,0-22.98-0.008-34.472
		c-0.004-4.068,0.424-4.383,4.85-3.101c0,2.342,0,4.782,0,7.221c2.289,0,4.242,0,6.209,0c0-4.863,0-9.491,0-14.423
		c-9.492,0-18.76-0.038-28.025,0.087c-0.607,0.009-1.679,1.242-1.714,1.946c-0.179,3.534-0.159,7.085-0.017,10.622
		c0.027,0.676,0.848,1.801,1.423,1.884c1.732,0.251,3.524,0.09,5.526,0.09c0-2.854,0-5.216,0-7.508
		c4.109-1.053,4.463-0.806,4.469,2.947c0.006,4.884,0.001,9.768,0.001,14.651C179.529,123.76,179.529,131.603,179.529,139.702z
		 M63.682,176.707c2.641,0.767,5.12,2.317,6.926,1.745c1.441-0.457,2.062-3.502,3.174-5.641c-5.097-1.729-9.503-3.223-14.158-4.802
		c-0.408,1.165-0.88,2.11-1.053,3.106c-0.226,1.304,0.087,2.765-0.373,3.949c-0.792,2.044-2.233,3.841-2.986,5.896
		c-1.76,4.797,1.21,10.396,6.157,12.074c10.673,3.622,21.41,7.072,31.973,10.993c4.017,1.491,7.548,1.448,11.138-0.566
		c0.83-0.466,1.712-1.266,2.041-2.116c1.172-3.023,2.166-6.12,3.107-9.227c0.22-0.722,0.214-1.712-0.114-2.365
		c-2.345-4.685-5.791-7.928-11.615-8.162c-0.653,1.938-1.337,3.962-2.077,6.161c2.602,0.976,4.887,1.833,7.451,2.795
		c-0.958,2.681-1.829,5.119-2.752,7.701c-13.426-4.572-26.399-8.99-39.586-13.48C61.925,181.86,62.778,179.361,63.682,176.707z
		 M237.603,161.932c9.662-10.23,19.158-20.286,28.77-30.463c2.191,2.058,4.189,3.936,6.268,5.888
		c-1.871,2.057-3.584,3.94-5.424,5.962c1.713,1.591,3.225,2.995,4.934,4.584c3.438-3.656,6.678-7.1,10.363-11.021
		c-2.152-1.386-4.156-2.36-5.748-3.791c-1.615-1.45-2.691-3.485-4.238-5.029c-3.801-3.788-10.262-3.491-13.975,0.46
		c-7.924,8.436-15.711,17.01-23.891,25.189c-3.025,3.026-4.646,7.144-3.137,9.941c2.127,3.943,6.002,8.245,10.037,9.517
		c4.768,1.502,9.729-1.421,12.223-6.609c-4.119-5.315-4.127-5.322-8.469-0.707c-0.52,0.553-0.912,1.227-1.449,1.961
		C241.636,165.717,239.76,163.957,237.603,161.932z M162.894,147.43c-1.964-4.627-3.802-8.956-5.703-13.437
		c-2.288,1.043-4.147,1.891-6.073,2.769c1.011,2.543,1.886,4.744,2.873,7.229c-1.915,0.798-3.691,1.538-5.612,2.338
		c-5.479-13.007-10.807-25.657-16.17-38.391c1.13-0.678,1.995-1.196,3.08-1.848c-0.868-1.969-1.687-3.827-2.585-5.865
		c-4.502,1.918-8.666,3.692-13.036,5.553c0.944,2.196,1.719,3.999,2.501,5.817c1.309-0.301,2.303-0.529,3.487-0.802
		c5.394,12.805,10.742,25.503,16.084,38.185c-1.261,0.699-2.084,1.155-3.108,1.725c0.865,1.968,1.684,3.832,2.583,5.877
		C148.496,153.506,155.435,150.578,162.894,147.43z M221.49,104.386c1.326,0.671,2.316,1.172,3.471,1.755
		c-4.988,12.999-9.928,25.871-14.902,38.836c-1.357-0.384-2.418-0.685-3.723-1.054c-0.77,2.041-1.48,3.934-2.264,6.011
		c4.574,1.738,8.82,3.353,13.303,5.057c0.824-2.141,1.529-3.97,2.264-5.877c-1.039-0.619-1.832-1.091-2.908-1.732
		c4.957-12.947,9.889-25.831,14.834-38.745c1.184,0.312,2.158,0.567,3.354,0.881c0.768-2.101,1.465-4.006,2.215-6.063
		c-4.609-1.76-8.846-3.377-13.338-5.092C222.982,100.483,222.281,102.32,221.49,104.386z"/>
</g>
</svg>
