<?xml version="1.0" encoding="utf-8"?>
<!-- Generator: Adobe Illustrator 16.0.4, SVG Export Plug-In . SVG Version: 6.00 Build 0)  -->
<!DOCTYPE svg PUBLIC "-//W3C//DTD SVG 1.1//EN" "http://www.w3.org/Graphics/SVG/1.1/DTD/svg11.dtd">
<svg version="1.1"
	 id="DET_x5F_logo" xmlns:dc="http://purl.org/dc/elements/1.1/" xmlns:cc="http://creativecommons.org/ns#" xmlns:rdf="http://www.w3.org/1999/02/22-rdf-syntax-ns#" xmlns:svg="http://www.w3.org/2000/svg"
	 xmlns="http://www.w3.org/2000/svg" xmlns:xlink="http://www.w3.org/1999/xlink" x="0px" y="0px" width="300px" height="300px"
	 viewBox="0 0 300 300" enable-background="new 0 0 300 300" xml:space="preserve">
<g>
	<path fill="#FFFFFF" d="M231.603,0.501c2.511,0.379,5.021,0.753,7.531,1.136c11.01,1.673,18.238,7.922,21.065,18.58
		c1.748,6.587,3.18,13.428,3.44,20.205c0.648,16.815,0.926,33.669,0.594,50.491c-0.181,9.084-1.15,18.305-3.101,27.17
		c-4.216,19.183-16.812,31.746-34.021,40.229c-11.113,5.479-23.096,8.019-35.047,10.701c-6.605,1.481-13.188,3.09-19.828,4.399
		c-2.584,0.512-3.357,1.636-3.351,4.22c0.087,25.448,0.019,50.896,0.095,76.348c0.011,3.272-0.461,6.312-1.797,9.298
		c-1.494,3.339-2.884,6.737-4.066,10.196c-0.682,1.984-1.852,2.809-3.824,3.305c-24.383,6.121-48.75,12.308-73.106,18.53
		c-4.851,1.239-9.643,2.715-14.843,4.19c-0.078-1.552-0.192-2.771-0.192-3.995c-0.01-40.188,0.018-80.377-0.019-120.564
		c-0.019-21.949-0.166-43.902-0.174-65.854c0-2-0.56-2.62-2.588-2.778c-17.529-1.372-29.762-13.248-32.238-30.872
		c-1.217-8.656-0.514-16.802,5.051-23.948c0.693-0.891,1.713-1.596,2.705-2.174c15.068-8.78,32.006-12.237,48.51-16.896
		c40.897-11.546,82.216-21.399,123.731-30.435c3.804-0.827,7.747-1.005,11.626-1.484C229.039,0.501,230.319,0.501,231.603,0.501z
		 M100.825,265.442c1.131-0.146,1.949-0.168,2.724-0.363c17.463-4.463,34.918-8.961,52.39-13.394
		c1.612-0.408,2.196-1.104,2.192-2.821c-0.075-30.021-0.085-60.045-0.103-90.067c-0.002-1.007,0.078-2.013,0.108-3.019
		c0.058-1.802,0.916-2.826,2.738-3.205c3.224-0.674,6.414-1.492,9.623-2.232c15.774-3.646,31.703-6.752,47.296-11.062
		c22.782-6.298,34.938-22.037,35.502-43.966c0.479-18.634-0.357-37.317-1.104-55.959c-0.219-5.488-1.688-11.037-3.323-16.328
		c-2.006-6.482-6.646-10.628-13.496-11.892c-6.742-1.244-13.53-1.084-20.183,0.362c-15.105,3.289-30.236,6.529-45.213,10.359
		c-33.681,8.613-67.274,17.554-100.894,26.413c-4.968,1.31-5.178,1.791-4.83,6.864c0.774,11.316,6.186,17.413,17.412,18.513
		c4.459,0.437,9.116-0.305,13.59-1.062c5.597-0.947,5.596-1.192,5.559,4.466c-0.2,30.188-0.57,60.379-0.589,90.569
		c-0.015,24.697,0.397,49.396,0.587,74.095C100.875,249.479,100.825,257.247,100.825,265.442z"/>
	<path fill="#FFFFFF" d="M147.964,102.172c-0.002-10.153-0.056-20.308,0.038-30.46c0.021-2.36-0.507-3.4-3.162-3.5
		c-7.082-0.27-11.562-7.143-8.866-13.69c0.514-1.243,2.541-2.229,4.059-2.635c11.126-2.979,22.29-5.815,33.463-8.617
		c5.052-1.266,10.134-2.432,15.234-3.476c2.494-0.512,5.063-0.864,7.604-0.896c6.188-0.076,9.683,2.701,10.538,8.851
		c0.716,5.142,1.004,10.37,1.066,15.565c0.146,12.165,0.193,24.336-0.037,36.499c-0.076,4.058-0.543,8.298-1.853,12.106
		c-2.756,8.021-9.069,12.354-17.108,14.307c-12.703,3.083-25.438,6.043-38.115,9.219c-2.403,0.604-2.896-0.082-2.883-2.264
		C147.994,122.845,147.965,112.509,147.964,102.172z M151.753,131.364c1.164-0.146,1.88-0.174,2.561-0.339
		c11.812-2.875,23.627-5.743,35.428-8.668c5.443-1.349,9.854-4.348,11.938-9.604c1.313-3.318,2.074-7.062,2.137-10.634
		c0.236-13.905,0.144-27.818,0.064-41.729c-0.021-3.649-0.197-7.328-0.697-10.938c-0.727-5.23-2.885-6.93-8.105-6.831
		c-1.727,0.033-3.498,0.114-5.165,0.521c-15.624,3.808-31.236,7.664-46.837,11.57c-4.055,1.017-5.062,3.485-2.364,6.779
		c1.289,1.575,3.688,2.441,5.753,3.112c1.471,0.479,3.223,0.094,5.292,0.094C151.753,86.763,151.753,108.938,151.753,131.364z"/>
	<path fill="#FFFFFF" d="M171.756,114.271c0-2.809,0-5.338,0-7.866c0.001-14.822,0.052-29.646-0.052-44.469
		c-0.016-2.174,0.734-3.177,2.746-3.517c1.35-0.229,2.685-0.547,4.029-0.8c3.217-0.605,5.073,0.592,5.151,3.812
		c0.25,10.146,0.377,20.298,0.425,30.449c0.025,5.85-0.253,11.7-0.268,17.553c-0.005,1.581-0.512,2.265-2.062,2.567
		C178.515,112.632,175.34,113.444,171.756,114.271z"/>
</g>
</svg>
