<?xml version="1.0" encoding="utf-8"?>
<!-- Generator: Adobe Illustrator 16.0.4, SVG Export Plug-In . SVG Version: 6.00 Build 0)  -->
<!DOCTYPE svg PUBLIC "-//W3C//DTD SVG 1.1//EN" "http://www.w3.org/Graphics/SVG/1.1/DTD/svg11.dtd">
<svg version="1.1"
	 id="GOL_x5F_logo" xmlns:dc="http://purl.org/dc/elements/1.1/" xmlns:cc="http://creativecommons.org/ns#" xmlns:rdf="http://www.w3.org/1999/02/22-rdf-syntax-ns#" xmlns:svg="http://www.w3.org/2000/svg"
	 xmlns="http://www.w3.org/2000/svg" xmlns:xlink="http://www.w3.org/1999/xlink" x="0px" y="0px" width="300px" height="300px"
	 viewBox="0 0 300 300" enable-background="new 0 0 300 300" xml:space="preserve">
<g>
	<path fill="#FFFFFF" d="M0.001,149.899C-0.16,67.379,67.574-0.8,151.739,0.056c80.703,0.821,149.746,67.111,148.236,152.915
		c-1.432,81.328-68.412,148.345-152.668,146.961C65.653,298.59-0.177,231.748,0.001,149.899z M11.6,145.08
		c-0.474,75.313,60.392,137.126,135.55,138.521c77.638,1.442,141.283-60.793,141.168-138.497
		C288.204,68.695,226.956,7.813,151.708,6.905C72.933,5.954,11.185,69.853,11.6,145.08z"/>
	<path fill="#FFFFFF" d="M233.504,46.745c-2.912,3.26-5.832,6.385-8.59,9.646c-16.894,19.976-29.337,42.23-34.479,68.134
		c-0.953,4.806-1.373,9.724-1.891,14.605c-0.137,1.28-0.549,1.696-1.766,1.722c-10.27,0.219-20.535,0.453-30.803,0.739
		c-1.498,0.042-1.914-0.504-1.896-1.951c0.18-14.632-0.125-29.285,0.542-43.894c1.07-23.458,2.766-46.887,4.229-70.326
		c0.153-2.451,0.567-4.883,0.787-7.331c0.119-1.352,0.686-1.718,2.053-1.592c17.104,1.562,33.232,6.352,48.436,14.341
		c7.884,4.143,15.221,9.08,22.094,14.722C232.647,45.91,233.033,46.309,233.504,46.745z"/>
	<path fill="#FFFFFF" d="M67.527,45.276c4.649-3.259,8.952-6.542,13.508-9.423c17.301-10.943,36.178-17.36,56.569-19.29
		c3.866-0.366,3.775-0.361,4.035,3.582c0.885,13.456,2.029,26.897,2.719,40.362c0.75,14.677,1.192,29.371,1.602,44.062
		c0.316,11.318,0.382,22.644,0.535,33.965c0.041,3.027-0.028,2.81-2.955,3.156c-4.194,0.5-7.52-0.72-10.665-3.554
		c-6.322-5.692-12.896-11.103-19.37-16.625c-1.62-1.382-2.607-2.944-3.186-5.166c-2.911-11.207-7.381-21.825-13.045-31.925
		C89.489,70.537,80.077,57.875,68.74,46.673C68.448,46.387,68.198,46.054,67.527,45.276z"/>
	<path fill="#FFFFFF" d="M201.634,140.492c-1.967,0-3.949-0.151-5.896,0.041c-2.096,0.209-2.297-0.927-1.963-2.41
		c1.427-6.293,2.164-12.871,4.525-18.799c8.596-21.572,21.721-39.955,40.329-54.149c2.011-1.533,4.231-2.782,6.276-4.272
		c1.459-1.064,2.41-0.768,3.537,0.565c10.231,12.12,17.996,25.646,23.373,40.565c3.525,9.787,5.595,19.888,6.746,30.197
		c0.277,2.485-0.039,2.745-2.521,2.954c-9.308,0.784-18.604,1.681-27.913,2.419c-6.787,0.539-13.587,0.93-20.385,1.326
		c-8.699,0.509-17.401,0.958-26.104,1.434C201.64,140.406,201.636,140.449,201.634,140.492z"/>
	<path fill="#FFFFFF" d="M236.856,240.998c-3.039,2.497-5.609,4.754-8.326,6.815c-18.676,14.172-39.567,22.938-62.914,25.693
		c-23.585,2.783-46.27-0.463-68.031-10.053c-1.539-0.679-2.219-1.511-2.364-3.257c-0.559-6.718-1.276-13.423-2.025-20.124
		c-0.225-2.008,0.536-2.518,2.447-2.523c23.495-0.076,46.99-0.386,70.481-0.288c13.21,0.056,26.425,0.609,39.626,1.212
		c9.539,0.437,19.062,1.316,28.588,2.019C235.004,240.541,235.658,240.753,236.856,240.998z"/>
	<path fill="#FFFFFF" d="M193.587,149.494c9.893,0.229,19.525,0.336,29.148,0.703c13.91,0.526,27.812,1.237,41.717,1.877
		c3.726,0.17,7.447,0.401,11.173,0.537c3.342,0.123,3.326,0.082,3.072,3.42c-1.216,16.201-5.577,31.531-12.651,46.133
		c-0.717,1.479-1.43,1.904-3.064,1.514c-20.396-4.898-40.084-11.787-59.006-20.836c-0.939-0.449-1.938-1.288-2.373-2.202
		c-4.533-9.479-7.365-19.437-8.013-29.965C193.567,150.335,193.587,149.992,193.587,149.494z"/>
	<path fill="#FFFFFF" d="M70.957,71.366c-0.483,0.933-0.893,1.916-1.474,2.781c-0.414,0.616-0.975,1.334-1.622,1.547
		c-1.276,0.42-1.755,1.067-1.766,2.427c-0.042,4.711-0.135,9.426-0.371,14.131c-0.079,1.568-0.398,3.221-1.029,4.65
		c-6.001,13.612-13.068,26.65-21.155,39.145c-1.067,1.648-2.236,2.26-4.125,2.047c-5.44-0.616-10.892-1.141-16.337-1.695
		c-1.313-0.133-2.244-0.437-2.062-2.162c1.369-13.015,4.137-25.682,9.15-37.811C35.697,83.045,43.145,70.857,52.73,59.98
		c0.902-1.022,1.609-1.156,2.648-0.405c5.236,3.784,10.479,7.555,15.713,11.342c0.208,0.151,0.333,0.415,0.496,0.626
		C71.379,71.484,71.168,71.425,70.957,71.366z"/>
	<path fill="#FFFFFF" d="M86.481,96.672c12.312,39.146,24.626,78.292,37.076,117.865c-2.761,0.233-5.235,0.525-7.715,0.569
		c-0.39,0.009-0.967-1.054-1.174-1.712c-3.107-9.859-6.167-19.734-9.238-29.607c-6.016-19.34-12.031-38.682-18.043-58.023
		c-0.187-0.604-0.443-1.217-0.465-1.833c-0.327-9.056-0.619-18.112-0.919-27.17C86.163,96.729,86.323,96.701,86.481,96.672z"/>
	<path fill="#FFFFFF" d="M91.793,102.482c3.239,3.055,6.479,6.057,9.637,9.141c0.511,0.5,0.726,1.354,0.957,2.082
		c10.394,32.5,20.772,65.004,31.146,97.51c0.228,0.711,0.359,1.449,0.613,2.495c-2.219,0.173-4.174,0.521-6.09,0.375
		c-0.695-0.054-1.638-1.177-1.899-1.993c-3.97-12.395-7.85-24.817-11.743-37.235c-7.369-23.493-14.735-46.989-22.1-70.483
		C92.108,103.717,91.948,103.048,91.793,102.482z"/>
	<path fill="#FFFFFF" d="M145.319,212.979c-2.368,0.149-4.385,0.263-6.398,0.408c-1.458,0.106-1.686-0.978-2.006-1.99
		c-2.92-9.252-5.85-18.502-8.76-27.758c-6.625-21.058-13.24-42.121-19.855-63.185c-0.229-0.726-0.422-1.461-0.333-2.455
		c1.077,1.016,2.064,2.15,3.246,3.027c5.484,4.067,8.261,9.592,10.241,16.09c7.293,23.939,15.057,47.736,22.637,71.588
		C144.49,209.971,144.824,211.254,145.319,212.979z"/>
	<path fill="#FFFFFF" d="M64.953,103.865c-6.803,38.36-13.604,76.722-20.425,115.191c-2.994-1.863-5.145-6.497-4.605-9.541
		c5.106-28.859,10.215-57.72,15.33-86.579c0.108-0.618,0.218-1.271,0.495-1.823c2.896-5.771,5.825-11.527,8.746-17.287
		C64.646,103.84,64.8,103.852,64.953,103.865z"/>
	<path fill="#FFFFFF" d="M192.335,176.891c-0.85-0.339-1.393-0.475-1.854-0.752c-11.355-6.873-22.717-13.742-34.043-20.665
		c-1.957-1.194-2.67-3.071-1.944-5.176c0.187-0.539,1.351-1.044,2.067-1.048c8.645-0.04,17.289,0.016,25.936,0.048
		c1.335,0.005,2.676,0.093,4.003-0.004c1.409-0.104,1.938,0.618,1.954,1.837C188.565,159.744,190.118,168.143,192.335,176.891z"/>
	<path fill="#FFFFFF" d="M65.143,121.797c0,5.061,0.047,10.121-0.011,15.181c-0.094,8.304,0.007,16.619-0.488,24.899
		c-0.292,4.873-1.558,9.689-2.417,14.525c-2.557,14.399-5.159,28.791-7.663,43.199c-0.312,1.794-0.875,2.801-2.877,2.779
		c-1.381-0.014-2.766,0.342-4.666,0.604c6.019-33.933,11.984-67.576,17.95-101.22C65.028,121.775,65.086,121.787,65.143,121.797z"/>
	<path fill="#FFFFFF" d="M124.078,133.027c3.081,2.746,6.187,5.463,9.212,8.271c0.462,0.428,0.582,1.257,0.792,1.922
		c7.005,22.058,14.002,44.117,20.997,66.177c0.968,3.055,0.945,3.104-2.154,3.129c-4.914,0.042-4.06,0.99-5.677-4.109
		c-7.711-24.346-15.396-48.695-23.086-73.047c-0.208-0.654-0.365-1.325-0.546-1.989
		C123.771,133.262,123.924,133.145,124.078,133.027z"/>
	<path fill="#FFFFFF" d="M138.551,145.668c3.464,2.835,6.945,5.647,10.369,8.531c0.442,0.371,0.677,1.062,0.864,1.652
		c5.769,18.096,11.523,36.195,17.27,54.299c0.127,0.391,0.157,0.812,0.288,1.527c-2.401,0.145-4.696,0.402-6.979,0.33
		c-0.582-0.02-1.426-0.999-1.65-1.697c-4.107-12.646-8.139-25.314-12.186-37.979c-2.588-8.108-5.174-16.219-7.758-24.328
		c-0.222-0.697-0.399-1.407-0.6-2.111C138.297,145.818,138.424,145.742,138.551,145.668z"/>
	<path fill="#FFFFFF" d="M88.084,139.43c2.09,6.627,4.19,13.251,6.27,19.883c5.616,17.914,11.226,35.829,16.829,53.747
		c0.805,2.571,0.762,2.611-1.833,2.769c-4.308,0.262-4.324,0.267-5.618-3.844c-4.918-15.629-9.898-31.236-14.663-46.912
		c-0.756-2.487-0.593-5.275-0.73-7.932c-0.305-5.888-0.532-11.777-0.79-17.667C87.726,139.459,87.903,139.443,88.084,139.43z"/>
	<path fill="#FFFFFF" d="M50.529,131.777c-4.411,25.207-8.822,50.414-13.232,75.621c-0.202,0.079-0.404,0.157-0.606,0.236
		c-0.739-1.414-1.402-2.877-2.237-4.232c-1.358-2.207-1.586-4.402-1.105-7.009c3.11-16.866,6.031-33.769,9.047-50.651
		c0.182-1.018,0.504-2.065,1.014-2.957c2.148-3.76,4.394-7.465,6.603-11.19C50.183,131.656,50.356,131.717,50.529,131.777z"/>
	<path fill="#FFFFFF" d="M154.735,158.766c2.806,2.105,5.639,4.176,8.396,6.346c0.562,0.439,0.995,1.198,1.22,1.896
		c4.564,14.199,9.092,28.41,13.618,42.622c0.126,0.393,0.173,0.81,0.313,1.496c-2.317,0.157-4.521,0.401-6.717,0.376
		c-0.426-0.006-1.021-1.012-1.229-1.657c-4.301-13.469-8.561-26.951-12.818-40.435c-1.095-3.467-2.16-6.943-3.24-10.416
		C154.433,158.92,154.583,158.843,154.735,158.766z"/>
	<path fill="#FFFFFF" d="M76.688,85.315c0.268,0.895,0.739,1.782,0.767,2.683c0.229,7.729,0.354,15.463,0.555,23.195
		c0.393,15.106,0.759,30.215,1.235,45.321c0.624,19.815,1.348,39.628,2.015,59.442c0.048,1.432,0.418,3.207-2.444,2.656
		c-1.709-44.308-2.622-88.683-3.08-133.067C76.054,85.469,76.372,85.392,76.688,85.315z"/>
	<path fill="#FFFFFF" d="M169.092,169.479c3.187,2.21,6.188,4.258,9.136,6.378c0.404,0.291,0.633,0.917,0.799,1.435
		c3.398,10.714,6.781,21.432,10.16,32.152c0.101,0.317,0.106,0.666,0.207,1.33c-2.34,0.122-4.549,0.301-6.756,0.295
		c-0.421,0-1.07-0.656-1.223-1.136c-4.191-13.187-8.334-26.39-12.475-39.593C168.903,170.226,168.981,170.076,169.092,169.479z"/>
	<path fill="#FFFFFF" d="M183.166,179.14c3.562,2.246,6.706,4.201,9.812,6.216c0.366,0.238,0.619,0.771,0.76,1.219
		c2.392,7.639,4.759,15.287,7.123,22.936c0.06,0.191,0.027,0.413,0.072,1.241c-2.498,0-4.967,0.048-7.428-0.058
		c-0.346-0.016-0.809-0.742-0.962-1.222c-3.083-9.631-6.129-19.272-9.175-28.915C183.289,180.304,183.289,180.025,183.166,179.14z"
		/>
	<path fill="#FFFFFF" d="M89.704,178.389c3.999,12.561,7.997,25.119,12.135,38.115c-3.349,0.305-6.325,0.658-9.308,0.748
		c-0.394,0.012-1.117-1.295-1.189-2.037c-0.285-2.939-0.37-5.896-0.534-8.848c-0.479-8.709-0.965-17.42-1.44-26.129
		c-0.033-0.604-0.006-1.207-0.006-1.812C89.476,178.416,89.59,178.402,89.704,178.389z"/>
	<path fill="#FFFFFF" d="M30.242,194.22c-1.663-4.5-4.036-8.681-2.34-14.015c1.803-5.668,2.87-11.588,4.002-17.445
		c0.842-4.354,3.826-7.359,6.282-10.799c-2.46,14.07-4.92,28.141-7.381,42.211C30.619,194.188,30.43,194.203,30.242,194.22z"/>
	<path fill="#FFFFFF" d="M211.823,210.477c-2.131,0-4.223,0.066-6.307-0.05c-0.468-0.026-1.164-0.608-1.311-1.071
		c-2.102-6.703-4.125-13.429-6.155-20.152c-0.03-0.099,0.095-0.244,0.257-0.625c2.752,1.558,5.491,3.076,8.188,4.67
		c0.365,0.215,0.611,0.769,0.752,1.215c1.544,4.892,3.061,9.79,4.562,14.695C211.906,209.467,211.823,209.832,211.823,210.477z"/>
	<path fill="#FFFFFF" d="M64.451,183.572c0,5.477,0.016,10.95-0.004,16.428c-0.023,6.109-0.146,12.223-0.083,18.332
		c0.02,1.916-0.661,2.673-2.531,2.69c-1.308,0.015-2.612,0.277-4.376,0.482c2.262-12.857,4.466-25.394,6.67-37.929
		C64.234,183.574,64.343,183.572,64.451,183.572z"/>
	<path fill="#FFFFFF" d="M245.229,232.271c-1.054,1.922-2.448,2.406-4.465,2.294c-10.104-0.564-20.211-1.195-30.324-1.379
		c-22.424-0.405-44.853-0.556-67.277-0.812c-0.279-0.002-0.557-0.023-1.004-0.046C148.364,231.392,238.72,231.069,245.229,232.271z"
		/>
	<path fill="#FFFFFF" d="M211.636,196.029c2.686,1.365,5.375,2.719,8.045,4.114c0.35,0.183,0.734,0.526,0.854,0.881
		c1.013,2.978,1.969,5.976,3.073,9.371c-2.659,0-4.941,0.037-7.221-0.038c-0.369-0.012-0.932-0.462-1.051-0.824
		c-1.434-4.389-2.801-8.799-4.188-13.201C211.312,196.23,211.474,196.131,211.636,196.029z"/>
	<path fill="#FFFFFF" d="M242.778,210.459c-3.467,0-6.934,0.001-10.398,0c-5.393-0.004-5.395-0.006-7.064-5.159
		c-0.25-0.771-0.471-1.552-0.812-2.688c6.359,2.619,12.329,5.076,18.298,7.533C242.792,210.25,242.787,210.354,242.778,210.459z"/>
	<path fill="#FFFFFF" d="M86.247,87.158c4.146,6.304,8.293,12.605,12.438,18.91c-0.191,0.163-0.385,0.327-0.577,0.491
		c-1.034-1.024-2.08-2.039-3.103-3.075c-1.083-1.099-2.158-2.207-3.217-3.332c-0.913-0.972-1.669-2.145-2.721-2.923
		c-3.414-2.528-3.451-6.116-3.422-9.769C85.846,87.359,86.047,87.259,86.247,87.158z"/>
	<path fill="#FFFFFF" d="M21.915,163.576c-0.348-3.088-0.679-5.565-0.854-8.056c-0.027-0.397,0.606-1.164,1.002-1.214
		c2.679-0.335,5.375-0.523,8.334-0.302C27.693,157.055,24.991,160.104,21.915,163.576z"/>
	<path fill="#FFFFFF" d="M82.181,255.599c-0.535-0.896-1.452-1.758-1.539-2.697c-0.407-4.398-0.625-8.82-0.795-13.238
		c-0.02-0.532,0.672-1.094,1.034-1.641c0.438,0.336,1.233,0.646,1.26,1.011c0.385,5.375,0.668,10.756,0.976,16.136
		C82.804,255.312,82.492,255.457,82.181,255.599z"/>
	<path fill="#FFFFFF" d="M77.317,83.134c-2.815-2.036-1.492-4.795-1.877-7.766C78.991,77.71,76.168,80.828,77.317,83.134z"/>
	<path fill="#FFFFFF" d="M27.006,168.873c-0.715,2.871-1.304,5.23-1.924,7.719C22.817,173.645,23.938,171.41,27.006,168.873z"/>
	<path fill="#FFFFFF" d="M61.021,238.968c3.257-1.055,3.791-0.52,3.113,2.871C63.097,240.882,62.172,240.028,61.021,238.968z"/>
</g>
</svg>
