<?xml version="1.0" encoding="utf-8"?>
<!-- Generator: Adobe Illustrator 16.0.4, SVG Export Plug-In . SVG Version: 6.00 Build 0)  -->
<!DOCTYPE svg PUBLIC "-//W3C//DTD SVG 1.1//EN" "http://www.w3.org/Graphics/SVG/1.1/DTD/svg11.dtd">
<svg version="1.1"
	 id="LAL_x5F_logo" xmlns:dc="http://purl.org/dc/elements/1.1/" xmlns:cc="http://creativecommons.org/ns#" xmlns:rdf="http://www.w3.org/1999/02/22-rdf-syntax-ns#" xmlns:svg="http://www.w3.org/2000/svg"
	 xmlns="http://www.w3.org/2000/svg" xmlns:xlink="http://www.w3.org/1999/xlink" x="0px" y="0px" width="300px" height="300px"
	 viewBox="30.709 70.571 300 300" enable-background="new 30.709 70.571 300 300" xml:space="preserve">
<g>
	<path fill-rule="evenodd" clip-rule="evenodd" fill="#FFFFFF" d="M167.198,135.727c-1.724-1.446-3.594-2.643-4.98-4.255
		c-3.491-4.062-4.008-9.742-1.32-14.361c3.024-5.196,6.168-10.329,9.431-15.38c2.425-3.754,6.033-5.698,10.539-5.7
		c40.845-0.015,81.688-0.05,122.532,0.023c9.769,0.018,15.771,10.819,10.822,19.247c-2.976,5.067-6.044,10.085-9.223,15.028
		c-2.457,3.817-6.067,5.835-10.666,5.855c-6.362,0.028-12.741,0.289-19.084-0.066c-7.213-0.405-12.27,2.384-15.471,8.772
		c-0.453,0.905-1.01,1.759-1.458,2.532c28.045,25.809,34.939,57.047,24.503,93.322c1.398-1.662,2.561-3.026,3.703-4.405
		c2.505-3.022,5.763-4.56,9.634-4.763c6.761-0.355,13.526-0.606,20.287-0.965c5.401-0.287,9.698,1.674,12.429,6.358
		c2.777,4.765,2.274,9.506-0.671,14.128c-18.476,28.997-36.942,58.002-55.352,87.042c-3.025,4.771-7.138,6.995-12.791,6.991
		c-71.837-0.046-143.673-0.039-215.51-0.013c-5.394,0.002-9.621-2.007-12.208-6.782c-2.589-4.778-1.991-9.474,0.991-13.937
		c3.989-5.969,7.979-11.938,11.942-17.924c2.836-4.283,6.79-6.353,11.929-6.312c6.293,0.051,12.595-0.172,18.88,0.065
		c5.879,0.222,9.898-2.388,12.826-7.211c6.454-10.635,12.826-21.321,19.468-31.838c1.693-2.682,1.902-4.81,0.881-7.846
		c-8.441-25.098-5.419-49.235,7.087-72.247c11.239-20.682,28.034-35.414,49.626-44.715c0.313-0.135,0.627-0.271,0.933-0.422
		C167.024,135.893,167.12,135.789,167.198,135.727z M146.141,224.176c-0.4-0.215-0.515-0.33-0.63-0.33
		c-10.125-0.017-20.25-0.017-30.375-0.044c-1.253-0.004-1.395,0.621-1.369,1.697c0.235,9.816,2.087,19.292,5.96,28.331
		c0.539,1.258,0.274,2.168-0.374,3.224c-4.259,6.937-8.479,13.896-12.714,20.847c-3.914,6.426-7.778,12.883-11.758,19.268
		c-4.264,6.84-10.275,10.543-18.564,10.329c-6.427-0.167-12.861-0.014-19.292-0.044c-2.045-0.01-3.876,0.533-5.035,2.242
		c-4.454,6.564-8.959,13.103-13.173,19.822c-2.277,3.633,0.378,8.008,4.697,8.27c0.887,0.054,1.778,0.028,2.668,0.028
		c33.729,0.001,67.458,0.001,101.188,0.001c37.49,0,74.982-0.016,112.475,0.029c2.913,0.004,5.093-0.812,6.723-3.383
		c18.393-28.995,36.832-57.96,55.281-86.919c1.418-2.225,2.128-4.44,0.738-6.913c-1.378-2.451-3.652-2.818-6.185-2.687
		c-6.283,0.329-12.566,0.707-18.854,0.869c-2.711,0.069-4.54,1.19-6.307,3.165c-7.611,8.507-15.061,17.189-23.129,25.247
		c-13.091,13.071-27.765,24.133-44.447,32.336c-8.396,4.129-17.069,7.646-26.559,7.821c-13.131,0.245-26.27,0.06-39.405,0.018
		c-1.402-0.005-2.804-0.281-4.499-0.463c0.503-1.149,0.802-2.049,1.267-2.854c1.709-2.96,3.536-5.854,5.189-8.846
		c0.736-1.331,1.517-1.365,2.823-0.899c20.183,7.194,40.15,6.129,59.915-1.692c0.751-0.298,1.503-0.697,2.123-1.208
		c13.434-11.084,24.78-23.935,32.992-39.383c1.91-3.594,3.499-7.358,5.235-11.045c-0.162-0.197-0.323-0.395-0.484-0.593
		c-1.47,0.375-3.103,0.461-4.376,1.183c-3.075,1.744-6.233,3.489-8.914,5.76c-10.766,9.115-21.937,17.672-33.526,25.715
		c-13.264,9.206-27.662,15.15-43.907,16.114c-2.552,0.151-5.119,0.021-7.729,0.021c1.063-3.674,1.804-4.232,5.185-4.366
		c12.37-0.49,24.143-3.305,34.761-9.816c6.987-4.286,13.859-8.813,20.443-13.69c7.633-5.654,14.906-11.795,22.31-17.756
		c4.967-4,10.135-7.5,16.854-7.629c0.391-0.007,1.035-0.34,1.119-0.644c0.956-3.451,1.825-6.927,2.816-10.781
		c-21.703,0-42.852,0-64.089,0c1.266-3.897,1.785-4.297,5.33-4.297c15.325-0.001,30.65,0.012,45.976-0.009
		c3.828-0.005,7.657-0.114,11.485-0.176c0.906-0.015,1.842,0.047,1.879-1.281c0.107-3.893,0.289-7.786,0.291-11.68
		c0-0.476-0.869-1.271-1.431-1.368c-1.537-0.265-3.146-0.107-4.69-0.346c-9.792-1.51-18.186-6.208-26.133-11.785
		c-3.333-2.338-6.406-5.045-9.666-7.638c0.921-1.437,1.636-2.553,2.395-3.737c3.029,2.428,5.777,4.785,8.683,6.929
		c6.757,4.985,13.951,9.19,22.208,11.171c2.538,0.608,5.192,0.726,8.362,1.143c-0.695-3.769-1.152-6.927-1.869-10.023
		c-3.242-13.997-9.586-26.58-17.745-38.299c-0.85-1.221-0.846-2.066-0.073-3.272c2.178-3.396,4.288-6.839,6.324-10.322
		c4.354-7.45,10.833-10.843,19.417-10.647c6.563,0.149,13.135,0.001,19.702,0.041c2.403,0.015,4.234-0.866,5.495-2.929
		c2.817-4.611,5.716-9.174,8.453-13.832c2.593-4.412,0.098-8.82-4.986-8.823c-40.366-0.023-80.73-0.005-121.097-0.032
		c-2.607-0.002-4.389,1.077-5.704,3.278c-2.596,4.344-5.248,8.656-7.944,12.939c-1.337,2.125-1.859,4.272-0.592,6.568
		c1.288,2.334,3.448,2.859,5.938,2.837c6.089-0.056,12.178-0.05,18.267,0.005c1.656,0.014,3.311,0.287,5.471,0.488
		c-1.435,2.45-2.646,4.406-3.735,6.429c-0.681,1.263-1.618,1.845-3.04,2.056c-15.71,2.334-29.739,8.577-42.244,18.317
		c-0.516,0.401-0.995,0.85-1.996,1.709c30.438,0,60.257,0,90.445,0c-0.517,0.97-0.8,1.567-1.142,2.13
		c-2.267,3.745-4.605,7.448-6.79,11.239c-0.85,1.475-1.836,2.057-3.578,2.049c-15.052-0.07-30.104-0.038-45.154-0.045
		c-0.703-0.001-1.406-0.079-2.46-0.142c2.249-3.74,4.29-7.136,6.432-10.698c-0.668-0.112-0.931-0.195-1.193-0.195
		c-13.409-0.008-26.819-0.02-40.228,0.022c-0.681,0.002-1.588,0.279-2.003,0.762c-3.873,4.502-7.665,9.075-11.464,13.642
		c-0.146,0.175-0.13,0.484-0.254,1.006c31.934,0,63.694,0,95.764,0c-0.429,0.843-0.664,1.391-0.97,1.896
		c-2.447,4.035-4.954,8.036-7.334,12.109c-0.722,1.233-1.579,1.646-2.969,1.643c-15.257-0.04-30.514-0.022-45.771-0.033
		c-0.625,0-1.249-0.115-2.19-0.209c2.285-3.768,4.358-7.186,6.518-10.743c-0.576-0.113-0.836-0.209-1.097-0.209
		c-14.572-0.009-29.145-0.03-43.717,0.049c-0.739,0.004-1.822,0.709-2.154,1.38c-1.969,3.979-3.773,8.039-5.604,12.085
		c-0.234,0.519-0.292,1.116-0.522,2.044c31.301,0,62.297,0,93.645,0c-0.515,0.972-0.797,1.576-1.141,2.144
		c-2.692,4.447-5.444,8.859-8.069,13.345c-0.825,1.411-1.791,1.932-3.44,1.925c-15.119-0.062-30.239-0.035-45.359-0.041
		c-0.652,0-1.304-0.066-2.353-0.123c2.658-4.398,5.134-8.495,7.832-12.959c-1.242,0-1.979,0-2.716,0c-11.356,0-22.714,0-34.07,0
		c-6.052,0-6.132-0.017-7.305,5.915c-0.723,3.662-1.156,7.381-1.783,11.495c28.586,0,56.698,0,85.237,0
		c-0.642,1.153-1.007,1.867-1.423,2.55c-14.95,24.53-29.941,49.036-44.82,73.609c-2.146,3.546-3.984,7.324-5.547,11.166
		c-1.195,2.938-0.174,4.627,2.901,5.344c2.512,0.585,5.127,0.975,7.701,1.001c11.561,0.119,23.126-0.083,34.685,0.146
		c9.283,0.183,18.066-1.737,26.56-5.262c15.505-6.436,29.269-15.662,42.024-26.463c12.516-10.597,23.796-22.401,34.163-35.097
		c0.664-0.813,1.765-1.7,2.721-1.773c5.658-0.433,11.334-0.64,17.005-0.904c0.639-0.03,1.282,0.057,2.284,0.107
		c-0.635,1.063-1.059,1.819-1.523,2.55c-17.773,27.929-35.562,55.849-53.296,83.803c-0.888,1.399-1.852,1.892-3.473,1.891
		c-70.811-0.034-141.62-0.029-212.431-0.036c-0.688,0-1.378-0.101-2.424-0.182c3.97-5.95,7.718-11.497,11.375-17.104
		c0.767-1.177,1.625-1.62,3.011-1.606c6.089,0.062,12.179-0.056,18.267,0.044c10.294,0.17,17.852-4.519,23.104-13.072
		c11.916-19.409,23.716-38.892,35.563-58.344C138.962,235.955,142.517,230.123,146.141,224.176z M267.075,241.825
		c-5.585,14.753-14.149,27.635-24.661,39.305c0.613-0.185,1.067-0.48,1.493-0.813c10.887-8.507,19.561-18.833,25.694-31.25
		C271.277,245.674,270.746,243.986,267.075,241.825z M258.757,160.981c6.731,12.231,11.52,25.087,13.366,38.948
		c4.03-0.833,5.39-2.52,4.33-5.982c-1.535-5.02-3.141-10.053-5.226-14.858C268.275,172.287,264.027,166.257,258.757,160.981z
		 M278.078,202.342c-1.798,0.815-3.319,1.4-4.716,2.202c-0.43,0.247-0.713,1.085-0.729,1.661c-0.089,3.343,0.007,6.692-0.123,10.034
		c-0.152,3.944-0.224,3.864,3.754,3.848c1.556-0.007,2.087-0.662,2.114-2.043c0.059-2.938,0.189-5.879,0.149-8.816
		C278.497,207.007,278.247,204.789,278.078,202.342z M277.045,224.555c-1.295,0-2.64,0.049-3.979-0.016
		c-1.141-0.054-1.509,0.532-1.733,1.536c-0.743,3.321-1.589,6.619-2.329,9.94c-0.115,0.521-0.098,1.342,0.22,1.638
		c1.179,1.099,2.509,2.037,3.788,3.04C274.849,237.507,277.47,227.268,277.045,224.555z"/>
	<path fill-rule="evenodd" clip-rule="evenodd" fill="#FFFFFF" d="M189.452,153.365c0.472-0.877,0.815-1.591,1.225-2.266
		c3.262-5.381,6.594-10.721,9.771-16.15c0.953-1.627,1.753-3.439,2.158-5.269c0.645-2.918-0.41-4.652-3.292-5.44
		c-2.153-0.59-4.431-0.932-6.663-0.985c-5.812-0.144-11.629-0.067-17.443-0.078c-0.731-0.002-1.463,0-2.532,0
		c0.423-0.871,0.638-1.421,0.941-1.918c2.102-3.445,4.282-6.843,6.304-10.334c0.822-1.421,1.8-1.916,3.439-1.912
		c23.875,0.051,47.751,0.035,71.627,0.035c14.846,0,29.691,0,44.537,0c0.874,0,1.748,0,3.055,0c-0.6,1.108-0.973,1.875-1.414,2.6
		c-2.026,3.33-4.117,6.623-6.086,9.986c-0.674,1.153-1.48,1.578-2.801,1.566c-5.951-0.058-11.908,0.12-17.854-0.055
		c-11.447-0.334-19.841,4.459-25.471,14.41c-2.794,4.938-5.844,9.733-8.896,14.519c-0.454,0.713-1.56,1.429-2.368,1.434
		c-15.529,0.085-31.059,0.064-46.588,0.056C190.646,153.563,190.192,153.458,189.452,153.365z"/>
</g>
</svg>
