<?xml version="1.0" encoding="utf-8"?>
<!-- Generator: Adobe Illustrator 16.0.4, SVG Export Plug-In . SVG Version: 6.00 Build 0)  -->
<!DOCTYPE svg PUBLIC "-//W3C//DTD SVG 1.1//EN" "http://www.w3.org/Graphics/SVG/1.1/DTD/svg11.dtd">
<svg version="1.1"
	 id="NYN_x5F_logo" xmlns:dc="http://purl.org/dc/elements/1.1/" xmlns:cc="http://creativecommons.org/ns#" xmlns:rdf="http://www.w3.org/1999/02/22-rdf-syntax-ns#" xmlns:svg="http://www.w3.org/2000/svg"
	 xmlns="http://www.w3.org/2000/svg" xmlns:xlink="http://www.w3.org/1999/xlink" x="0px" y="0px" width="300px" height="300px"
	 viewBox="30.709 70.571 300 300" enable-background="new 30.709 70.571 300 300" xml:space="preserve">
<g>
	<path fill-rule="evenodd" clip-rule="evenodd" fill="#FFFFFF" d="M330.136,220.599c0.521,81.188-66.854,151.851-154.282,149.41
		c-77.948-2.176-147.357-67.188-144.49-155.156c2.563-78.635,67.857-143.948,149.748-143.782
		C263.674,71.239,330.654,139.177,330.136,220.599z M156.313,146.219c0.002,0.115,0.004,0.23,0.006,0.346
		c-0.858,0-1.732-0.104-2.574,0.016c-8.457,1.194-16.953,2.186-25.355,3.696c-18.669,3.356-36.342,9.416-52.082,20.326
		c-12.71,8.811-22.306,20.122-27.534,34.836c-2.282,6.425-3.892,13.02-2.565,19.886c2.495,12.911,8.679,23.958,17.6,33.495
		c11.616,12.42,25.978,20.501,41.834,26.19c22.249,7.982,45.402,10.506,68.813,11.088c9.167,0.228,18.374-0.32,27.532-0.959
		c8.201-0.571,16.408-1.446,24.527-2.731c17.994-2.848,35.215-8.144,50.924-17.641c15.648-9.46,27.807-21.996,34.531-39.348
		c3.666-9.462,4.039-18.83,0.598-28.467c-5.402-15.12-15.195-26.729-28.068-35.938c-10.111-7.233-21.293-12.342-33.125-16.021
		c-12.375-3.85-25.006-6.52-37.943-7.548c-8.91-0.708-17.824-1.632-26.75-1.801C176.565,145.453,166.436,145.996,156.313,146.219z
		 M57.56,166.754c37.249-25.268,78.597-36.896,123.191-36.889c44.608,0.006,85.973,11.604,123.247,36.893
		c-8.061-19-19.85-35.262-35.557-48.516c-27.053-22.829-58.357-33.729-93.795-32.201c-33.104,1.428-61.737,13.777-85.995,36.198
		C75.112,134.753,64.739,149.598,57.56,166.754z M302.828,276.173c-24.574,15.831-51.084,26.529-79.729,31.835
		c-28.518,5.282-56.998,5.235-85.505-0.177c-28.677-5.444-55.175-16.143-79.515-32.417c9.007,20.834,22.521,38.077,40.411,51.772
		c27.654,21.172,59.011,30.404,93.697,27.583c29.525-2.4,55.471-13.692,77.705-33.237
		C284.158,308.994,295.328,294.072,302.828,276.173z"/>
	<path fill-rule="evenodd" clip-rule="evenodd" fill="#FFFFFF" d="M135.16,187.72c0-8.038-0.005-16.076,0.002-24.114
		c0.002-3.275,0.01-3.298,3.283-3.822c2.08-0.333,4.176-0.557,6.256-0.886c3.249-0.513,3.717-0.154,3.718,3.129
		c0.006,28.98,0.005,57.962,0.005,86.943c0,10.937,0.005,21.873-0.006,32.809c-0.003,3.01-0.062,3.057-3.023,2.744
		c-2.554-0.27-5.104-0.576-7.656-0.869c-2.047-0.234-2.617-1.451-2.606-3.407c0.063-10.701,0.029-21.403,0.029-32.105
		c-0.001-8.202-0.171-16.409,0.068-24.604c0.129-4.446-1.871-8.171-3.175-12.132c-1.927-5.855-4.117-11.625-6.201-17.43
		c-0.123-0.343-0.285-0.672-0.875-0.973c0,0.81,0,1.619,0,2.429c0,27.263,0,54.525-0.003,81.788
		c-0.001,3.623-0.043,3.677-3.541,2.75c-2.616-0.693-5.193-1.534-7.812-2.216c-1.636-0.426-1.941-1.502-1.928-2.984
		c0.045-4.999,0.016-9.999,0.016-14.998c0-30.075-0.001-60.149,0-90.225c0-3.626-0.011-3.677,3.435-4.699
		c2.468-0.732,5.006-1.232,7.471-1.976c1.831-0.553,2.712,0.094,3.342,1.808c2.72,7.4,5.526,14.769,8.305,22.147
		c0.131,0.345,0.288,0.68,0.433,1.019C134.85,187.804,135.005,187.762,135.16,187.72z"/>
	<path fill-rule="evenodd" clip-rule="evenodd" fill="#FFFFFF" d="M225.578,212.914c3.004-4.057,6.072-8.066,8.953-12.21
		c0.547-0.79,0.463-2.104,0.467-3.177c0.031-10.624,0.012-21.247,0.021-31.871c0.004-3.231,0.248-3.43,3.354-2.636
		c2.646,0.676,5.27,1.438,7.91,2.137c1.424,0.376,2.018,1.257,2.014,2.728c-0.023,12.107,0.045,24.216-0.096,36.322
		c-0.016,1.408-0.943,2.929-1.777,4.179c-1.426,2.137-3.154,4.069-4.674,6.146c-1.424,1.942-1.607,3.931-0.225,6.081
		c1.898,2.952,3.746,5.952,5.391,9.051c0.732,1.382,1.283,3.052,1.297,4.596c0.107,13.341,0.016,26.684,0.127,40.025
		c0.021,2.555-0.957,3.658-3.361,4.098c-2.447,0.446-4.83,1.236-7.258,1.807c-2.453,0.577-2.688,0.389-2.695-2.21
		c-0.021-7.812-0.008-15.622-0.01-23.435c0-5.312,0.219-10.636-0.094-15.93c-0.15-2.552-1.162-5.093-2.041-7.547
		c-0.607-1.696-1.83-1.777-3.018-0.367c-1.203,1.433-2.391,2.881-3.586,4.319c-1.473,1.771-1.979,3.697-1.754,6.074
		c0.262,2.765-0.139,5.584-0.121,8.379c0.037,6.076,0.186,12.151,0.232,18.227c0.037,4.594,0.072,9.191-0.107,13.778
		c-0.025,0.663-1.17,1.706-1.928,1.843c-3.443,0.625-6.926,1.057-10.412,1.374c-0.553,0.05-1.609-0.766-1.705-1.31
		c-0.254-1.434-0.125-2.938-0.119-4.415c0.021-6.062,0.07-12.126,0.08-18.189c0.006-3.191-0.07-6.383-0.07-9.573
		c-0.002-10.117-0.018-20.234,0.037-30.352c0.039-7.165,0.266-14.33,0.256-21.495c-0.008-7.137-0.262-14.272-0.301-21.409
		c-0.031-5.826,0.086-11.654,0.164-17.48c0.02-1.384,0.586-2.205,2.186-1.977c3.088,0.441,6.186,0.817,9.281,1.198
		c1.693,0.209,2.393,1.11,2.387,2.833c-0.021,8.098-0.002,16.196,0.061,24.295c0.053,7.155,0.184,14.312,0.273,21.467
		c0.02,1.473,0.004,2.944,0.004,4.417C225.006,212.773,225.291,212.843,225.578,212.914z"/>
	<path fill-rule="evenodd" clip-rule="evenodd" fill="#FFFFFF" d="M105.074,168.393c0.085,1.27,0.205,2.245,0.206,3.22
		c0.013,10.467-0.234,20.942,0.127,31.397c0.142,4.11-1.614,6.851-4.188,9.358c-4.855,4.729-5.099,4.856-0.156,9.299
		c3.244,2.916,4.425,6.032,4.328,10.393c-0.287,12.96-0.1,25.931-0.104,38.897c-0.001,3.914-0.056,3.967-3.697,2.366
		c-2.356-1.036-4.628-2.274-7.008-3.253c-1.937-0.797-2.628-2.029-2.609-4.136c0.091-10.545-0.004-21.09,0.075-31.635
		c0.016-1.992-0.62-3.445-2.111-4.672c-1.862-1.532-3.538-1.319-4.897,0.704c-0.174,0.26-0.265,0.638-0.502,0.78
		c-4.282,2.588-2.823,6.794-2.889,10.496c-0.113,6.424-0.031,12.851-0.031,19.801c-1.205-0.551-1.755-0.657-2.098-0.981
		c-3.605-3.417-7.25-6.799-10.701-10.367c-0.758-0.783-1.109-2.265-1.114-3.426c-0.07-17.106-0.079-34.213,0.007-51.319
		c0.007-1.294,0.487-2.947,1.362-3.81c3.548-3.497,7.333-6.754,11.045-10.083c0.144-0.129,0.438-0.088,1.14-0.208
		c0,11.527,0,22.954,0,34.381c0.221,0.075,0.442,0.151,0.664,0.228c0.713-0.821,1.412-1.656,2.145-2.461
		c1.943-2.134,3.888-4.267,5.857-6.376c1.445-1.548,2.162-3.255,2.133-5.472c-0.109-8.278,0.009-16.56-0.078-24.839
		c-0.021-1.991,0.61-3.211,2.477-3.969c2.818-1.145,5.565-2.464,8.358-3.671C103.426,168.772,104.106,168.663,105.074,168.393z"/>
	<path fill-rule="evenodd" clip-rule="evenodd" fill="#FFFFFF" d="M175.006,220.978c0-15.776-0.053-31.554,0.075-47.33
		c0.015-1.722,0.762-3.631,1.704-5.111c2.175-3.418,4.589-6.697,7.107-9.874c0.711-0.897,2.109-1.753,3.197-1.758
		c4.754-0.021,9.514,0.181,14.26,0.492c3.145,0.206,3.332,0.564,3.338,3.777c0.008,3.905-0.029,7.811,0.006,11.715
		c0.018,2.009-0.854,2.381-2.795,2.259c-4.025-0.253-8.078-0.171-12.113-0.065c-0.514,0.013-1.125,0.919-1.457,1.537
		c-0.229,0.427-0.055,1.07-0.055,1.617c0,28.273-0.002,56.547,0.002,84.82c0,3.471,0.088,3.569,3.529,3.531
		c3.668-0.04,7.34-0.049,11.004-0.228c1.391-0.067,1.861,0.447,1.863,1.691c0.002,5.155-0.01,10.31,0.008,15.464
		c0.006,1.722-1.002,2.366-2.516,2.416c-4.967,0.165-9.938,0.261-14.904,0.447c-1.578,0.06-2.631-0.524-3.477-1.857
		c-2.553-4.021-5.281-7.932-7.73-12.011c-0.712-1.183-0.997-2.789-1.003-4.203C174.983,252.532,175.008,236.755,175.006,220.978z"/>
	<path fill-rule="evenodd" clip-rule="evenodd" fill="#FFFFFF" d="M267.513,253.279c4.029-1.154,7.207-2.854,9.998-5.23
		c0.48-0.41,0.611-1.426,0.621-2.165c0.055-4.453,0.146-8.913-0.053-13.358c-0.051-1.133-0.838-2.549-1.738-3.276
		c-6.553-5.301-13.199-10.487-19.869-15.64c-1.557-1.203-2.273-2.559-2.262-4.564c0.064-12.658,0.025-25.317,0.039-37.977
		c0.004-3.038,0.258-3.233,3.049-2.079c11.721,4.846,22.508,11.143,31.543,20.205c2.096,2.104,3.373,4.338,3.08,7.45
		c-0.232,2.479-0.029,4.997-0.057,7.497c-0.01,0.817-0.135,1.634-0.246,2.899c-4.451-2.255-8.564-4.226-12.529-6.463
		c-0.652-0.367-1.031-1.974-0.873-2.894c0.734-4.277-1.363-6.371-5.061-7.922c-5.713-2.393-5.643-2.557-5.641,3.494
		c0,3.751,0.068,7.504-0.029,11.252c-0.047,1.831,0.65,3.082,2.055,4.188c6.93,5.455,13.848,10.927,20.676,16.506
		c0.838,0.683,1.557,2.038,1.58,3.099c0.145,6.482,0.168,12.973-0.006,19.454c-0.035,1.34-0.758,2.946-1.691,3.924
		c-2.672,2.792-5.523,5.432-8.471,7.938c-7.258,6.176-15.57,10.583-24.367,14.125c-2.711,1.092-3,0.908-3.01-1.906
		c-0.023-6.877,0.025-13.754-0.029-20.629c-0.016-1.873,0.557-2.829,2.584-3.086c2.781-0.354,5.539-0.979,8.262-1.67
		c1.969-0.499,2.564,0.204,2.461,2.064C267.449,249.962,267.513,251.419,267.513,253.279z"/>
	<path fill-rule="evenodd" clip-rule="evenodd" fill="#FFFFFF" d="M155.309,221.833c0.001-19.999-0.006-39.997,0.007-59.996
		c0.002-3.108-0.627-4.244,3.689-4.176c2.253,0.035,4.509-0.323,6.766-0.361c3.431-0.057,3.668,0.223,3.673,3.77
		c0.01,7.967,0.003,15.933,0.003,23.898c0,32.186-0.001,64.37-0.001,96.556c0,4.517-1.663,5.857-6.047,4.979
		c-1.513-0.303-3.058-0.52-4.597-0.604c-3.115-0.174-3.488-0.48-3.489-3.601C155.305,262.143,155.309,241.988,155.309,221.833z"/>
</g>
</svg>
