<?xml version="1.0" encoding="utf-8"?>
<!-- Generator: Adobe Illustrator 16.0.4, SVG Export Plug-In . SVG Version: 6.00 Build 0)  -->
<!DOCTYPE svg PUBLIC "-//W3C//DTD SVG 1.1//EN" "http://www.w3.org/Graphics/SVG/1.1/DTD/svg11.dtd">
<svg version="1.1"
	 id="PHI_x5F_logo" xmlns:dc="http://purl.org/dc/elements/1.1/" xmlns:cc="http://creativecommons.org/ns#" xmlns:rdf="http://www.w3.org/1999/02/22-rdf-syntax-ns#" xmlns:svg="http://www.w3.org/2000/svg"
	 xmlns="http://www.w3.org/2000/svg" xmlns:xlink="http://www.w3.org/1999/xlink" x="0px" y="0px" width="300px" height="300px"
	 viewBox="30.709 70.571 300 300" enable-background="new 30.709 70.571 300 300" xml:space="preserve">
<g>
	<path fill="#FFFFFF" d="M190.713,71.113c6.112,0.747,12.314,1.041,18.329,2.263c37.391,7.596,67.927,26.433,91.027,56.837
		c18.549,24.412,28.563,52.072,29.984,82.772c0.077,1.667,0.226,11.855,0.117,12.758c-1.028,8.541-1.426,17.212-3.167,25.604
		c-6.846,32.991-23.236,60.57-48.752,82.528c-25.86,22.255-55.945,34.299-90.089,36.026c-2.003,0.102-11.337,0.226-12.237,0.123
		c-8.553-0.974-17.249-1.254-25.637-3.008c-36.481-7.627-66.181-26.407-88.865-55.953c-16.912-22.026-26.787-46.992-29.668-74.669
		c-0.339-3.265-0.66-24.617-0.508-25.687c1.129-7.93,1.678-15.99,3.454-23.771c7.456-32.66,24.183-59.825,49.835-81.345
		c23.161-19.43,49.863-30.771,79.973-33.97C167.687,71.285,189.552,70.971,190.713,71.113z M42.286,224.88
		c0,1.821-0.126,3.339,0.024,4.828c0.382,3.781,0.817,7.56,1.355,11.322c2.927,20.42,10.344,39.111,21.672,56.31
		c1.011,1.533,1.932,2.002,3.724,1.324c9.317-3.521,18.757-6.736,27.977-10.492c3.434-1.398,5.962-0.651,9.192,1.387
		c-6.313,2.623-12.187,5.172-18.144,7.505c-5.92,2.318-11.925,4.419-17.979,6.646c11.612,16.396,32.493,34.832,58.617,45.239
		c13.701,5.459,27.853,8.88,42.741,9.597c0.564-29.027,10.682-54.217,26.659-77.144c1.43,1.261,2.546,2.244,3.645,3.213
		c-5.666,8.124-10.112,16.757-13.796,25.794c-5.855,14.367-9.326,29.269-9.962,44.797c-0.153,3.74-0.128,3.72,3.726,3.759
		c10.117,0.104,20.068-1.227,29.881-3.577c22.783-5.457,43.123-15.718,60.848-31.105c1.258-1.093,1.51-1.983,0.683-3.437
		c-2.343-4.119-4.468-8.363-6.883-12.438c-4.136-6.978-8.428-13.863-12.774-20.984c1.216-1.152,2.456-2.33,4.088-3.878
		c7.211,11.667,14.201,22.979,21.263,34.404c0.648-0.562,1.19-0.959,1.648-1.437c8.124-8.479,15.086-17.822,20.858-28.052
		c8.739-15.489,14.307-32.071,16.577-49.682c0.841-6.523,0.768-13.163,1.194-19.743c0.128-1.977-0.637-2.573-2.504-2.286
		c-1.92,0.294-3.87,0.38-5.792,0.664c-22.106,3.264-42.774,10.514-61.795,22.33c-2.329,1.446-3.878,0.823-5.237-2.043
		c22.733-14.781,47.737-23.075,74.532-25.788c2.458-16.764-15.261-65.085-27.142-74.052c-26.852,36.852-58.859,68.659-94.784,96.606
		c-2.591-2.782-2.554-3.856,0.149-5.995c17.298-13.677,33.648-28.402,48.982-44.252c14.865-15.365,28.602-31.669,40.997-49.101
		c1.214-1.708,1.139-2.723-0.232-4.322c-15.592-18.181-34.53-31.571-56.919-40.077c-0.765-0.291-1.568-0.479-2.607-0.792
		c-0.201,0.939-0.389,1.646-0.5,2.365c-0.425,2.754-0.724,5.532-1.251,8.266c-4.334,22.475-13.537,42.809-27.075,61.214
		c-7.156,9.729-15.289,18.557-24.546,26.327c-0.556,0.467-1.551,0.981-2.093,0.785c-1.439-0.521-2.744-1.419-4.15-2.194
		c3.27-3.817,3.381-3.927,0.052-7.323c-11.677-11.918-23.257-23.941-35.222-35.566c-11.118-10.804-22.889-20.892-35.688-29.73
		c-2.027-1.4-3.202-1.16-4.966,0.349c-20.519,17.559-34.983,39.118-43.066,64.901c-3.813,12.165-5.941,24.62-6.142,37.396
		c-0.031,1.987,0.502,2.928,2.581,3.105c4.12,0.35,8.214,1.086,12.337,1.292c4.626,0.231,9.271,0.054,13.96,0.054
		c0.994,3.691,0.516,5.192-2.051,5.203c-5.666,0.023-11.338-0.068-16.997-0.33C48.854,225.901,45.775,225.316,42.286,224.88z
		 M98.552,108.918c0.782,0.661,1.281,1.093,1.79,1.511c9.677,7.949,19.857,15.366,28.918,23.964
		c14.855,14.098,29.005,28.943,43.387,43.537c1.461,1.482,2.276,1.894,3.993,0.208c16.312-16.013,28.645-34.601,36.688-56.016
		c3.667-9.764,6.08-19.839,7.534-30.156c0.56-3.963,0.635-4.254-3.212-5.001c-9.185-1.782-18.372-4.039-27.659-4.705
		c-22.8-1.635-44.827,2.158-65.765,11.603C115.255,97.91,106.766,102.781,98.552,108.918z"/>
	<path fill-rule="evenodd" clip-rule="evenodd" fill="#FFFFFF" d="M157.091,234.518c3.542-4.094,7.284-6.472,11.953-7.31
		c10.879-1.954,20.134,2.352,24.652,12.424c5.446,12.143,5.409,24.437-1.931,35.876c-6.011,9.369-15.288,12.989-26.172,12.608
		c-15.774-0.552-26.413-8.419-30.832-23.603c-4.837-16.628-4.584-33.326,2.263-49.42c5.796-13.626,16.453-21.198,31.268-22.381
		c4.231-0.337,8.674-0.259,12.791,0.657c8.651,1.923,14.257,9.532,14.143,18.13c-0.069,5.302-3.175,9.211-8.288,10.436
		c-5.479,1.312-10.071-0.482-12.312-5.399c-1.265-2.777-1.68-5.94-2.475-8.931c-0.021-0.081-0.006-0.169-0.018-0.253
		c-0.312-2.219-0.063-4.785-2.796-5.735c-2.234-0.777-5.23,0.312-6.672,3.063c-1.699,3.246-3.212,6.765-3.871,10.337
		c-0.993,5.38-1.185,10.91-1.692,16.377C157.027,232.189,157.091,232.997,157.091,234.518z M157.14,259.712
		c0.562,5.254,0.815,9.73,1.581,14.116c0.581,3.33,2.887,5.141,5.646,5.292c2.571,0.141,4.813-1.476,6.13-4.477
		c0.304-0.691,0.517-1.43,0.705-2.162c1.865-7.223,1.706-14.567,1.169-21.908c-0.17-2.333-0.447-4.811-1.407-6.884
		c-0.812-1.753-2.418-3.598-4.137-4.373c-3.33-1.5-6.594,0.396-7.485,4.611C158.196,249.342,157.778,254.911,157.14,259.712z"/>
	<path fill-rule="evenodd" clip-rule="evenodd" fill="#FFFFFF" d="M142.674,191.395c-0.857,3.061-1.548,6.182-2.604,9.174
		c-4.322,12.246-11.274,23.079-18.568,33.682c-6.108,8.878-9.34,18.78-10.504,29.304c-0.739,6.688-0.468,13.486-0.645,20.235
		c-0.02,0.74-0.003,1.48-0.003,2.458c-11.76-4.389-23.097-5.122-34.263,2.033c-0.301-5.071,0.724-9.782,2.304-14.378
		c4.293-12.487,11.695-23.11,20.704-32.519c5.771-6.026,12.337-11.304,18.647-16.799c5.949-5.181,11.924-10.314,16.271-17.01
		c0.798-1.23,1.441-2.56,1.86-4.224c-15.28,21.844-36.507,27.965-61.777,24.192c0-12.307,0-24.462,0-37.192
		c1.078,0.814,1.865,1.329,2.562,1.946c9.722,8.607,21.043,13.165,34.05,12.891c10.984-0.231,20.674-3.97,28.544-11.887
		c0.811-0.815,1.707-1.544,2.563-2.312C142.102,191.125,142.388,191.26,142.674,191.395z"/>
	<path fill-rule="evenodd" clip-rule="evenodd" fill="#FFFFFF" d="M261.625,255.954c-2.631,2.194-5.175,1.894-7.693,0.892
		c-2.303-0.917-2.827,0.907-3.09,2.234c-0.688,3.469-1.089,7-1.48,10.521c-0.168,1.507,0,3.048-0.04,4.572
		c-0.043,1.6,0.251,2.713,2.208,3.058c0.586,0.104,1.17,1.706,1.251,2.664c0.053,0.625-0.788,1.898-1.251,1.909
		c-5.992,0.131-11.989,0.086-18.17,0.086c0-1.639,0-3.024,0-4.611c3.035,0.161,3.537-1.532,3.428-4.157
		c-0.202-4.821,0.029-9.66-0.095-14.486c-0.071-2.731-0.391-5.433-3.667-6.579c-0.54-0.188-0.851-1.676-0.849-2.562
		c0.001-0.641,0.564-1.675,1.104-1.854c3.761-1.255,7.559-2.426,11.406-3.366c0.6-0.146,1.977,0.872,2.208,1.602
		c0.748,2.359,1.131,4.835,1.812,8.007c0.916-2.151,1.35-3.874,2.304-5.233c1.17-1.668,2.509-3.65,4.246-4.393
		c3.325-1.422,6.508,1.007,7.047,4.807c0.114,0.808,0.116,1.631,0.203,2.952c0.879-0.955,1.4-1.573,1.976-2.137
		c5.092-4.989,11.086-7.01,18.091-5.205c3.105,0.8,5.267,3.949,4.435,6.728c-0.421,1.408-1.732,2.91-3.047,3.607
		c-2.051,1.087-4.377,0.672-6.108-1.002c-0.937-0.904-1.462-2.228-2.216-3.333c-0.31-0.452-0.788-1.199-1.096-1.154
		c-0.574,0.081-1.245,0.531-1.582,1.026c-1.198,1.762-0.504,4.08,1.643,5.074c1.83,0.849,3.803,1.386,5.711,2.065
		c7.078,2.521,9.545,6.889,8.438,14.929c-0.795,5.76-5.684,10.038-12.125,10.227c-3.441,0.101-6.961,0.005-10.333-0.616
		c-4.014-0.739-5.979-3.743-5.647-7.521c0.193-2.213,1.166-4.007,3.389-4.563c2.256-0.565,4.512-0.175,5.847,1.967
		c0.874,1.404,1.195,3.146,2.002,4.604c0.456,0.823,1.481,2.019,2.094,1.932c1.472-0.207,3.128-0.789,4.152-1.79
		c0.507-0.496-0.077-2.296-0.441-3.417c-0.175-0.536-0.941-0.946-1.52-1.271c-1.177-0.662-2.367-1.337-3.624-1.815
		C266.059,267.882,261.184,264.17,261.625,255.954z"/>
	<path fill-rule="evenodd" clip-rule="evenodd" fill="#FFFFFF" d="M229.254,270.317c4.572,4.139,4.314,4.212,0.211,7.939
		c-6.83,6.204-17.824,6.517-24.304,0.996c-4.617-3.935-6.032-9.301-5.977-15.056c0.049-5.056,1.208-9.886,4.419-14.021
		c4.133-5.319,11.663-7.639,18.295-5.584c5.911,1.832,10.554,8.048,10.977,14.548c0.1,1.521-0.312,2.281-1.88,2.672
		c-4.914,1.224-9.77,2.68-14.688,3.881c-2.254,0.551-2.584,1.567-1.802,3.624c2.381,6.262,8.723,7.588,13.257,2.681
		C228.27,271.447,228.757,270.877,229.254,270.317z M212.76,261.238c3.214-1.215,6.593-0.721,7.104-4.247
		c0.286-1.975-0.185-4.202-0.875-6.112c-0.342-0.943-1.965-1.974-2.987-1.951c-0.844,0.018-2.216,1.43-2.379,2.389
		C213.106,254.353,213.048,257.467,212.76,261.238z"/>
	<path fill-rule="evenodd" clip-rule="evenodd" fill="#FFFFFF" d="M133.378,270.548c0.719,1.501,1.329,2.773,2.117,4.419
		c-6.565,3.428-12.97,6.772-19.361,10.109c-1.943-3.369-1.545-4.886,1.416-6.4C122.734,276.024,127.91,273.357,133.378,270.548z"/>
	<path fill-rule="evenodd" clip-rule="evenodd" fill="#FFFFFF" d="M131.111,169.127c-0.465-1.159-0.992-2.472-1.396-3.48
		c0.895-0.549,2.082-1.276,3.106-1.905c0.879,0.542,2.075,1.282,3.161,1.954c-0.38,0.89-0.958,2.244-1.465,3.431
		C133.582,169.127,132.246,169.127,131.111,169.127z"/>
	<path fill-rule="evenodd" clip-rule="evenodd" fill="#FFFFFF" d="M90.875,190.783c-0.183-0.103-0.835-0.47-1.527-0.86
		c-0.673,0.384-1.321,0.754-1.603,0.916c-0.508-1.365-1.021-2.745-1.398-3.76c0.954-0.681,2.147-1.531,3.024-2.157
		c0.853,0.607,2,1.422,3.104,2.208C92.118,187.946,91.542,189.26,90.875,190.783z"/>
	<path fill-rule="evenodd" clip-rule="evenodd" fill="#FFFFFF" d="M103.391,193.565c-0.388,1.013-0.89,2.33-1.328,3.478
		c-1.012,0-2.422,0-3.53,0c-0.348-1.011-0.786-2.289-1.176-3.422c0.879-0.603,2.037-1.398,2.923-2.006
		C101.321,192.267,102.507,193.011,103.391,193.565z"/>
	<path fill-rule="evenodd" clip-rule="evenodd" fill="#FFFFFF" d="M81.583,161.885c0.317,1.18,1.081,2.531,2.879,1.872
		c-0.513,1.347-1.016,2.671-1.498,3.938c-0.88-0.045-2.25-0.117-3.342-0.174c-0.455-1.107-0.989-2.407-1.378-3.353
		C79.157,163.543,80.308,162.756,81.583,161.885z"/>
	<path fill-rule="evenodd" clip-rule="evenodd" fill="#FFFFFF" d="M84.011,180.588c-0.893-0.641-2.211-1.657-3.285,0.084
		c-0.422-1.373-0.812-2.647-1.172-3.812c0.826-0.646,1.937-1.515,2.85-2.23c0.793,0.61,1.903,1.465,2.945,2.267
		C85.019,177.811,84.521,179.185,84.011,180.588z"/>
	<path fill-rule="evenodd" clip-rule="evenodd" fill="#FFFFFF" d="M124.265,186.382c0.925,0.653,2.033,1.436,2.919,2.061
		c-0.351,1.093-0.759,2.367-1.101,3.433c-1.072,0-2.472,0-3.612,0c-0.318-1.002-0.744-2.346-1.103-3.476
		C122.225,187.802,123.339,187.027,124.265,186.382z"/>
	<path fill-rule="evenodd" clip-rule="evenodd" fill="#FFFFFF" d="M129.446,181.76c-0.318-1.005-0.726-2.288-1.085-3.423
		c0.846-0.596,1.95-1.375,2.908-2.05c0.886,0.619,1.995,1.393,2.954,2.062c-0.337,0.97-0.801,2.307-1.184,3.411
		C131.984,181.76,130.576,181.76,129.446,181.76z"/>
	<path fill-rule="evenodd" clip-rule="evenodd" fill="#FFFFFF" d="M114.937,197.332c-1.07,0.06-2.275,0.127-3.395,0.189
		c-0.331-0.974-0.782-2.3-1.165-3.425c0.822-0.592,1.955-1.405,3.067-2.203c0.729,0.592,1.85,1.501,2.87,2.329
		C115.964,195.015,115.44,196.196,114.937,197.332z"/>
	<path fill-rule="evenodd" clip-rule="evenodd" fill="#FFFFFF" d="M107.605,138.934c0.776,0.648,1.81,1.511,2.848,2.378
		c-0.306,0.825-0.768,2.069-1.181,3.186c-1.05,0.056-2.39,0.127-3.502,0.186c-0.301-1.005-0.698-2.336-1.056-3.528
		C105.523,140.534,106.643,139.673,107.605,138.934z"/>
	<path fill-rule="evenodd" clip-rule="evenodd" fill="#FFFFFF" d="M132.117,153.873c-0.302,0.988-0.693,2.271-1.053,3.445
		c-0.943-0.045-2.347-0.113-3.54-0.171c-0.31-0.961-0.702-2.18-1.069-3.316c0.767-0.563,1.851-1.359,2.851-2.093
		C130.125,152.359,131.209,153.183,132.117,153.873z"/>
	<path fill-rule="evenodd" clip-rule="evenodd" fill="#FFFFFF" d="M85.506,150.48c0.909,0.7,1.988,1.53,2.885,2.22
		c-0.353,1.061-0.782,2.357-1.12,3.376c-1.106,0-2.454,0-3.575,0c-0.306-0.992-0.701-2.277-1.027-3.34
		C83.582,152.009,84.657,151.155,85.506,150.48z"/>
	<path fill-rule="evenodd" clip-rule="evenodd" fill="#FFFFFF" d="M96.446,147.581c-1.157-0.064-2.494-0.14-3.711-0.208
		c-0.222-0.864-0.532-2.075-0.87-3.39c0.659-0.514,1.731-1.349,2.762-2.152c0.729,0.629,1.744,1.508,2.658,2.299
		C97.026,145.193,96.706,146.513,96.446,147.581z"/>
	<path fill-rule="evenodd" clip-rule="evenodd" fill="#FFFFFF" d="M119.935,141.891c0.933,0.761,1.874,1.53,2.744,2.241
		c-0.257,1.079-0.583,2.449-0.836,3.515c-1.001-0.102-2.322-0.237-3.675-0.375c-0.253-0.802-0.646-2.048-1.004-3.187
		C118.004,143.422,119.083,142.567,119.935,141.891z"/>
</g>
</svg>
