<?xml version="1.0" encoding="utf-8"?>
	<!DOCTYPE svg PUBLIC "-//W3C//DTD SVG 1.1//EN" "http://www.w3.org/Graphics/SVG/1.1/DTD/svg11.dtd">
	<svg id="ppg" version="1.1" xmlns="http://www.w3.org/2000/svg" xmlns:xlink="http://www.w3.org/1999/xlink" x="0px" y="0px" viewBox="-1.495 132.371 1202.99 674.235"
		 enable-background="new -1.495 132.371 1202.99 674.235" xml:space="preserve">
	<g id="points">
		<circle fill="#FFFFFF" cx="105.191" cy="724.279" r="2"/>
		<circle fill="#FFFFFF" cx="175.879" cy="724.279" r="2"/>
		<circle fill="#FFFFFF" cx="246.565" cy="724.279" r="2"/>
		<circle fill="#FFFFFF" cx="317.253" cy="724.279" r="2"/>
		<circle fill="#FFFFFF" cx="387.939" cy="724.279" r="2"/>
		<circle fill="#FFFFFF" cx="458.626" cy="724.279" r="2"/>
		<circle fill="#FFFFFF" cx="529.313" cy="724.279" r="2"/>
		<circle fill="#FFFFFF" cx="600" cy="724.279" r="2"/>
		<circle fill="#FFFFFF" cx="670.687" cy="724.279" r="2"/>
		<circle fill="#FFFFFF" cx="741.374" cy="724.279" r="2"/>
		<circle fill="#FFFFFF" cx="812.061" cy="724.279" r="2"/>
		<circle fill="#FFFFFF" cx="882.747" cy="724.279" r="2"/>
		<circle fill="#FFFFFF" cx="953.435" cy="724.279" r="2"/>
		<circle fill="#FFFFFF" cx="1024.121" cy="724.279" r="2"/>
		<circle fill="#FFFFFF" cx="1094.808" cy="724.279" r="2"/>
		<circle fill="#FFFFFF" cx="1165.495" cy="724.279" r="2"/>
		<circle fill="#FFFFFF" cx="246.565" cy="677.954" r="2"/>
		<circle fill="#FFFFFF" cx="317.253" cy="677.954" r="2"/>
		<circle fill="#FFFFFF" cx="387.939" cy="677.954" r="2"/>
		<circle fill="#FFFFFF" cx="458.626" cy="677.954" r="2"/>
		<circle fill="#FFFFFF" cx="600" cy="677.954" r="2"/>
		<circle fill="#FFFFFF" cx="670.687" cy="677.954" r="2"/>
		<circle fill="#FFFFFF" cx="741.374" cy="677.954" r="2"/>
		<circle fill="#FFFFFF" cx="812.061" cy="677.954" r="2"/>
		<circle fill="#FFFFFF" cx="882.747" cy="677.954" r="2"/>
		<circle fill="#FFFFFF" cx="953.435" cy="677.954" r="2"/>
		<circle fill="#FFFFFF" cx="1024.121" cy="677.954" r="2"/>
		<circle fill="#FFFFFF" cx="1094.808" cy="677.954" r="2"/>
		<circle fill="#FFFFFF" cx="1165.495" cy="677.954" r="2"/>
		<circle fill="#FFFFFF" cx="105.191" cy="770.605" r="2"/>
		<circle fill="#FFFFFF" cx="175.879" cy="770.605" r="2"/>
		<circle fill="#FFFFFF" cx="246.565" cy="770.605" r="2"/>
		<circle fill="#FFFFFF" cx="317.253" cy="770.605" r="2"/>
		<circle fill="#FFFFFF" cx="387.939" cy="770.605" r="2"/>
		<circle fill="#FFFFFF" cx="458.626" cy="770.605" r="2"/>
		<circle fill="#FFFFFF" cx="529.313" cy="770.605" r="2"/>
		<circle fill="#FFFFFF" cx="600" cy="770.605" r="2"/>
		<circle fill="#FFFFFF" cx="670.687" cy="770.605" r="2"/>
		<circle fill="#FFFFFF" cx="741.374" cy="770.605" r="2"/>
		<circle fill="#FFFFFF" cx="812.061" cy="770.605" r="2"/>
		<circle fill="#FFFFFF" cx="882.747" cy="770.605" r="2"/>
		<circle fill="#FFFFFF" cx="953.435" cy="770.605" r="2"/>
		<circle fill="#FFFFFF" cx="1024.121" cy="770.605" r="2"/>
		<circle fill="#FFFFFF" cx="1094.808" cy="770.605" r="2"/>
		<circle fill="#FFFFFF" cx="1165.495" cy="770.605" r="2"/>
		<circle fill="#FFFFFF" cx="34.505" cy="585.303" r="2"/>
		<circle fill="#FFFFFF" cx="105.191" cy="585.303" r="2"/>
		<circle fill="#FFFFFF" cx="317.253" cy="585.303" r="2"/>
		<circle fill="#FFFFFF" cx="387.939" cy="585.303" r="2"/>
		<circle fill="#FFFFFF" cx="600" cy="585.303" r="2"/>
		<circle fill="#FFFFFF" cx="670.687" cy="585.303" r="2"/>
		<circle fill="#FFFFFF" cx="741.374" cy="585.303" r="2"/>
		<circle fill="#FFFFFF" cx="812.061" cy="585.303" r="2"/>
		<circle fill="#FFFFFF" cx="882.747" cy="585.303" r="2"/>
		<circle fill="#FFFFFF" cx="953.435" cy="585.303" r="2"/>
		<circle fill="#FFFFFF" cx="1024.121" cy="585.303" r="2"/>
		<circle fill="#FFFFFF" cx="1094.808" cy="585.303" r="2"/>
		<circle fill="#FFFFFF" cx="1165.495" cy="585.303" r="2"/>
		<circle fill="#FFFFFF" cx="34.505" cy="538.977" r="2"/>
		<circle fill="#FFFFFF" cx="105.191" cy="538.977" r="2"/>
		<circle fill="#FFFFFF" cx="246.565" cy="538.977" r="2"/>
		<circle fill="#FFFFFF" cx="529.313" cy="538.977" r="2"/>
		<circle fill="#FFFFFF" cx="670.687" cy="538.977" r="2"/>
		<circle fill="#FFFFFF" cx="741.374" cy="538.977" r="2"/>
		<circle fill="#FFFFFF" cx="812.061" cy="538.977" r="2"/>
		<circle fill="#FFFFFF" cx="882.747" cy="538.977" r="2"/>
		<circle fill="#FFFFFF" cx="953.435" cy="538.977" r="2"/>
		<circle fill="#FFFFFF" cx="1024.121" cy="538.977" r="2"/>
		<circle fill="#FFFFFF" cx="1094.808" cy="538.977" r="2"/>
		<circle fill="#FFFFFF" cx="1165.495" cy="538.977" r="2"/>
		<circle fill="#FFFFFF" cx="34.505" cy="631.628" r="2"/>
		<circle fill="#FFFFFF" cx="387.939" cy="631.628" r="2"/>
		<circle fill="#FFFFFF" cx="529.313" cy="631.628" r="2"/>
		<circle fill="#FFFFFF" cx="600" cy="631.628" r="2"/>
		<circle fill="#FFFFFF" cx="670.687" cy="631.628" r="2"/>
		<circle fill="#FFFFFF" cx="741.374" cy="631.628" r="2"/>
		<circle fill="#FFFFFF" cx="812.061" cy="631.628" r="2"/>
		<circle fill="#FFFFFF" cx="882.747" cy="631.628" r="2"/>
		<circle fill="#FFFFFF" cx="953.435" cy="631.628" r="2"/>
		<circle fill="#FFFFFF" cx="1024.121" cy="631.628" r="2"/>
		<circle fill="#FFFFFF" cx="1094.808" cy="631.628" r="2"/>
		<circle fill="#FFFFFF" cx="1165.495" cy="631.628" r="2"/>
		<circle fill="#FFFFFF" cx="34.505" cy="446.325" r="2"/>
		<circle fill="#FFFFFF" cx="105.191" cy="446.325" r="2"/>
		<circle fill="#FFFFFF" cx="175.879" cy="446.325" r="2"/>
		<circle fill="#FFFFFF" cx="246.565" cy="446.325" r="2"/>
		<circle fill="#FFFFFF" cx="317.253" cy="446.325" r="2"/>
		<circle fill="#FFFFFF" cx="387.939" cy="446.325" r="2"/>
		<circle fill="#FFFFFF" cx="458.626" cy="446.325" r="2"/>
		<circle fill="#FFFFFF" cx="529.313" cy="446.325" r="2"/>
		<circle fill="#FFFFFF" cx="812.061" cy="446.325" r="2"/>
		<circle fill="#FFFFFF" cx="882.747" cy="446.325" r="2"/>
		<circle fill="#FFFFFF" cx="953.435" cy="446.325" r="2"/>
		<circle fill="#FFFFFF" cx="1024.121" cy="446.325" r="2"/>
		<circle fill="#FFFFFF" cx="1094.808" cy="446.325" r="2"/>
		<circle fill="#FFFFFF" cx="1165.495" cy="446.325" r="2"/>
		<circle fill="#FFFFFF" cx="34.505" cy="399.999" r="2"/>
		<circle fill="#FFFFFF" cx="105.191" cy="399.999" r="2"/>
		<circle fill="#FFFFFF" cx="175.879" cy="399.999" r="2"/>
		<circle fill="#FFFFFF" cx="246.565" cy="399.999" r="2"/>
		<circle fill="#FFFFFF" cx="317.253" cy="399.999" r="2"/>
		<circle fill="#FFFFFF" cx="387.939" cy="399.999" r="2"/>
		<circle fill="#FFFFFF" cx="458.626" cy="399.999" r="2"/>
		<circle fill="#FFFFFF" cx="529.313" cy="399.999" r="2"/>
		<circle fill="#FFFFFF" cx="882.747" cy="399.999" r="2"/>
		<circle fill="#FFFFFF" cx="953.435" cy="399.999" r="2"/>
		<circle fill="#FFFFFF" cx="1024.121" cy="399.999" r="2"/>
		<circle fill="#FFFFFF" cx="1094.808" cy="399.999" r="2"/>
		<circle fill="#FFFFFF" cx="1165.495" cy="399.999" r="2"/>
		<circle fill="#FFFFFF" cx="34.505" cy="492.651" r="2"/>
		<circle fill="#FFFFFF" cx="105.191" cy="492.651" r="2"/>
		<circle fill="#FFFFFF" cx="175.879" cy="492.651" r="2"/>
		<circle fill="#FFFFFF" cx="246.565" cy="492.651" r="2"/>
		<circle fill="#FFFFFF" cx="317.253" cy="492.651" r="2"/>
		<circle fill="#FFFFFF" cx="670.687" cy="492.651" r="2"/>
		<circle fill="#FFFFFF" cx="741.374" cy="492.651" r="2"/>
		<circle fill="#FFFFFF" cx="812.061" cy="492.651" r="2"/>
		<circle fill="#FFFFFF" cx="882.747" cy="492.651" r="2"/>
		<circle fill="#FFFFFF" cx="953.435" cy="492.651" r="2"/>
		<circle fill="#FFFFFF" cx="1024.121" cy="492.651" r="2"/>
		<circle fill="#FFFFFF" cx="1094.808" cy="492.651" r="2"/>
		<circle fill="#FFFFFF" cx="1165.495" cy="492.651" r="2"/>
		<circle fill="#FFFFFF" cx="34.505" cy="307.348" r="2"/>
		<circle fill="#FFFFFF" cx="105.191" cy="307.348" r="2"/>
		<circle fill="#FFFFFF" cx="175.879" cy="307.348" r="2"/>
		<circle fill="#FFFFFF" cx="246.565" cy="307.348" r="2"/>
		<circle fill="#FFFFFF" cx="317.253" cy="307.348" r="2"/>
		<circle fill="#FFFFFF" cx="387.939" cy="307.348" r="2"/>
		<circle fill="#FFFFFF" cx="458.626" cy="307.349" r="2"/>
		<circle fill="#FFFFFF" cx="529.313" cy="307.348" r="2"/>
		<circle fill="#FFFFFF" cx="600" cy="307.348" r="2"/>
		<circle fill="#FFFFFF" cx="670.687" cy="307.348" r="2"/>
		<circle fill="#FFFFFF" cx="741.374" cy="307.349" r="2"/>
		<circle fill="#FFFFFF" cx="1024.121" cy="307.348" r="2"/>
		<circle fill="#FFFFFF" cx="1094.808" cy="307.348" r="2"/>
		<circle fill="#FFFFFF" cx="34.505" cy="261.022" r="2"/>
		<circle fill="#FFFFFF" cx="105.191" cy="261.022" r="2"/>
		<circle fill="#FFFFFF" cx="175.879" cy="261.022" r="2"/>
		<circle fill="#FFFFFF" cx="246.565" cy="261.022" r="2"/>
		<circle fill="#FFFFFF" cx="317.253" cy="261.022" r="2"/>
		<circle fill="#FFFFFF" cx="387.939" cy="261.022" r="2"/>
		<circle fill="#FFFFFF" cx="458.626" cy="261.022" r="2"/>
		<circle fill="#FFFFFF" cx="529.313" cy="261.022" r="2"/>
		<circle fill="#FFFFFF" cx="600" cy="261.022" r="2"/>
		<circle fill="#FFFFFF" cx="670.687" cy="261.022" r="2"/>
		<circle fill="#FFFFFF" cx="741.374" cy="261.022" r="2"/>
		<circle fill="#FFFFFF" cx="812.061" cy="261.022" r="2"/>
		<circle fill="#FFFFFF" cx="34.505" cy="214.696" r="2"/>
		<circle fill="#FFFFFF" cx="105.191" cy="214.696" r="2"/>
		<circle fill="#FFFFFF" cx="175.879" cy="214.696" r="2"/>
		<circle fill="#FFFFFF" cx="246.565" cy="214.696" r="2"/>
		<circle fill="#FFFFFF" cx="317.253" cy="214.696" r="2"/>
		<circle fill="#FFFFFF" cx="387.939" cy="214.696" r="2"/>
		<circle fill="#FFFFFF" cx="458.626" cy="214.696" r="2"/>
		<circle fill="#FFFFFF" cx="529.313" cy="214.696" r="2"/>
		<circle fill="#FFFFFF" cx="600" cy="214.696" r="2"/>
		<circle fill="#FFFFFF" cx="670.687" cy="214.696" r="2"/>
		<circle fill="#FFFFFF" cx="741.374" cy="214.696" r="2"/>
		<circle fill="#FFFFFF" cx="812.061" cy="214.696" r="2"/>
		<circle fill="#FFFFFF" cx="882.747" cy="214.696" r="2"/>
		<circle fill="#FFFFFF" cx="34.505" cy="168.371" r="2"/>
		<circle fill="#FFFFFF" cx="105.191" cy="168.371" r="2"/>
		<circle fill="#FFFFFF" cx="175.879" cy="168.371" r="2"/>
		<circle fill="#FFFFFF" cx="246.565" cy="168.371" r="2"/>
		<circle fill="#FFFFFF" cx="317.253" cy="168.371" r="2"/>
		<circle fill="#FFFFFF" cx="387.939" cy="168.371" r="2"/>
		<circle fill="#FFFFFF" cx="458.626" cy="168.37" r="2"/>
		<circle fill="#FFFFFF" cx="529.313" cy="168.371" r="2"/>
		<circle fill="#FFFFFF" cx="600" cy="168.371" r="2"/>
		<circle fill="#FFFFFF" cx="670.687" cy="168.371" r="2"/>
		<circle fill="#FFFFFF" cx="741.374" cy="168.37" r="2"/>
		<circle fill="#FFFFFF" cx="812.061" cy="168.371" r="2"/>
		<circle fill="#FFFFFF" cx="882.747" cy="168.371" r="2"/>
		<circle fill="#FFFFFF" cx="1024.121" cy="168.371" r="2"/>
		<circle fill="#FFFFFF" cx="1165.495" cy="168.371" r="2"/>
		<circle fill="#FFFFFF" cx="34.505" cy="353.674" r="2"/>
		<circle fill="#FFFFFF" cx="105.191" cy="353.674" r="2"/>
		<circle fill="#FFFFFF" cx="175.879" cy="353.674" r="2"/>
		<circle fill="#FFFFFF" cx="246.565" cy="353.674" r="2"/>
		<circle fill="#FFFFFF" cx="317.253" cy="353.674" r="2"/>
		<circle fill="#FFFFFF" cx="387.939" cy="353.674" r="2"/>
		<circle fill="#FFFFFF" cx="458.626" cy="353.674" r="2"/>
		<circle fill="#FFFFFF" cx="529.313" cy="353.674" r="2"/>
		<circle fill="#FFFFFF" cx="600" cy="353.674" r="2"/>
		<circle fill="#FFFFFF" cx="953.435" cy="353.674" r="2"/>
		<circle fill="#FFFFFF" cx="1024.121" cy="353.674" r="2"/>
		<circle fill="#FFFFFF" cx="1094.808" cy="353.674" r="2"/>
		<circle fill="#FFFFFF" cx="1165.495" cy="353.674" r="2"/>
		<circle fill="#FFFFFF" cx="175.879" cy="677.954" r="2"/>
	</g>
	<g id="SAC">
		<path id="SAC-62" class="SAC" opacity="0.5" fill="#FFFFFF" d="M1165.494,198.696c8.836,0,16,7.156,16,16c0,8.836-7.164,16-16,16
			s-16-7.164-16-16C1149.494,205.853,1156.658,198.696,1165.494,198.696z"/>
		<path id="SAC-61" class="SAC" fill="#FFFFFF" d="M1094.808,150.371c9.949,0,18,8.051,18,18c0,9.94-8.051,18-18,18c-9.933,0-18-8.06-18-18
			C1076.808,158.421,1084.875,150.371,1094.808,150.371z"/>
		<path id="SAC-60" class="SAC" opacity="0.5" fill="#FFFFFF" d="M1024.121,188.696c14.359,0,26,11.629,26,26c0,14.358-11.641,26-26,26
			s-26-11.642-26-26C998.121,200.325,1009.762,188.696,1024.121,188.696z"/>
		<path id="SAC-59" class="SAC" fill="#FFFFFF" d="M953.435,299.348c4.418,0,8,3.578,8,8c0,4.418-3.582,8-8,8s-8-3.582-8-8
			C945.435,302.926,949.017,299.348,953.435,299.348z"/>
		<path id="SAC-58" class="SAC" fill="#FFFFFF" d="M882.747,343.674c5.522,0,10,4.473,10,10c0,5.522-4.478,10-10,10s-10-4.478-10-10
			C872.747,348.146,877.225,343.674,882.747,343.674z"/>
		<path id="SAC-57" class="SAC" fill="#FFFFFF" d="M812.061,381.999c9.94,0,18,8.055,18,18c0,9.94-8.06,18-18,18s-18-8.06-18-18
			C794.061,390.054,802.12,381.999,812.061,381.999z"/>
		<path id="SAC-56" class="SAC" opacity="0.5" fill="#FFFFFF" d="M741.374,428.325c9.94,0,18,8.051,18,18c0,9.94-8.06,18-18,18s-18-8.06-18-18
			C723.374,436.376,731.434,428.325,741.374,428.325z"/>
		<path id="SAC-55" class="SAC" opacity="0.5" fill="#FFFFFF" d="M670.687,428.325c9.94,0,18,8.051,18,18c0,9.94-8.06,18-18,18s-18-8.06-18-18
			C652.687,436.376,660.746,428.325,670.687,428.325z"/>
		<path id="SAC-54" class="SAC" fill="#FFFFFF" d="M600,482.651c5.522,0,10,4.473,10,10c0,5.522-4.478,10-10,10s-10-4.478-10-10
			C590,487.124,594.478,482.651,600,482.651z"/>
		<path id="SAC-49" class="SAC" fill="#FFFFFF" d="M246.565,575.303c5.522,0,10,4.473,10,10c0,5.522-4.478,10-10,10c-5.525,0-10-4.478-10-10
			C236.565,579.775,241.041,575.303,246.565,575.303z"/>
		<path id="SAC-48" class="SAC" opacity="0.5" fill="#FFFFFF" d="M175.879,508.977c16.567,0,30,13.418,30,30c0,16.567-13.433,30-30,30
			c-16.575,0-30-13.433-30-30C145.879,522.395,159.304,508.977,175.879,508.977z"/>
	</g>
	<g id="PHI">
		<path id="PHI-62" opacity="0.5" fill="#FFFFFF" d="M1165.494,190.696c13.254,0,24,10.734,24,24c0,13.254-10.746,24-24,24
			s-24-10.746-24-24C1141.494,201.431,1152.24,190.696,1165.494,190.696z"/>
		<path id="PHI-61" fill="#FFFFFF" d="M1094.808,198.696c8.844,0,16,7.156,16,16c0,8.836-7.156,16-16,16c-8.827,0-16-7.164-16-16
			C1078.808,205.853,1085.98,198.696,1094.808,198.696z"/>
		<path id="PHI-60" opacity="0.5" fill="#FFFFFF" d="M1024.121,198.696c8.836,0,16,7.156,16,16c0,8.836-7.164,16-16,16
			c-8.837,0-16-7.164-16-16C1008.121,205.853,1015.284,198.696,1024.121,198.696z"/>
		<path id="PHI-59" fill="#FFFFFF" d="M953.435,198.696c8.836,0,16,7.156,16,16c0,8.836-7.164,16-16,16s-16-7.164-16-16
			C937.435,205.853,944.599,198.696,953.435,198.696z"/>
		<path id="PHI-58" fill="#FFFFFF" d="M882.747,243.022c9.94,0,18,8.051,18,18c0,9.94-8.06,18-18,18s-18-8.06-18-18
			C864.747,251.073,872.807,243.022,882.747,243.022z"/>
		<path id="PHI-57" opacity="0.5" fill="#FFFFFF" d="M812.061,335.674c9.94,0,18,8.051,18,18c0,9.94-8.06,18-18,18s-18-8.06-18-18
			C794.061,343.725,802.12,335.674,812.061,335.674z"/>
		<path id="PHI-56" opacity="0.5" fill="#FFFFFF" d="M741.374,383.999c8.836,0,16,7.156,16,16c0,8.836-7.164,16-16,16
			s-16-7.164-16-16C725.374,391.155,732.538,383.999,741.374,383.999z"/>
		<path id="PHI-55" opacity="0.5" fill="#FFFFFF" d="M670.687,428.325c9.94,0,18,8.051,18,18c0,9.94-8.06,18-18,18s-18-8.06-18-18
			C652.687,436.376,660.746,428.325,670.687,428.325z"/>
		<path id="PHI-51" opacity="0.5" fill="#FFFFFF" d="M387.939,470.651c12.149,0,22,9.84,22,22c0,12.149-9.851,22-22,22
			c-12.155,0-22-9.851-22-22C365.939,480.491,375.785,470.651,387.939,470.651z"/>
	</g>
	<g id="NYN">
		<path id="NYN-62" opacity="0.5" fill="#FFFFFF" d="M1165.495,271.348c19.882,0,36,16.102,36,36c0,19.881-16.118,36-36,36
			c-19.88,0-36-16.119-36-36C1129.495,287.45,1145.615,271.348,1165.495,271.348z"/>
		<path id="NYN-61" opacity="0.5" fill="#FFFFFF" d="M1094.808,229.022c17.688,0,32,14.312,32,32c0,17.672-14.312,32-32,32
			c-17.656,0-32-14.328-32-32C1062.808,243.335,1077.151,229.022,1094.808,229.022z"/>
		<path id="NYN-60" opacity="0.5" fill="#FFFFFF" d="M1024.121,221.022c22.09,0,40,17.891,40,40c0,22.09-17.91,40-40,40
			s-40-17.91-40-40C984.121,238.913,1002.031,221.022,1024.121,221.022z"/>
		<path id="NYN-59" opacity="0.5" fill="#FFFFFF" d="M953.435,170.696c24.299,0,44,19.68,44,44c0,24.299-19.701,44-44,44
			s-44-19.701-44-44C909.435,190.376,929.136,170.696,953.435,170.696z"/>
		<path id="NYN-58" opacity="0.5" fill="#FFFFFF" d="M882.747,263.348c24.299,0,44,19.68,44,44c0,24.3-19.701,44-44,44
			s-44-19.7-44-44C838.747,283.028,858.448,263.348,882.747,263.348z"/>
		<path id="NYN-57" opacity="0.5" fill="#FFFFFF" d="M812.061,269.348c20.985,0,38,17.005,38,38c0,20.976-17.015,38-38,38
			s-38-17.024-38-38C774.061,286.354,791.075,269.348,812.061,269.348z"/>
		<path id="NYN-56" opacity="0.5" fill="#FFFFFF" d="M741.374,357.999c23.194,0,42,18.785,42,42c0,23.194-18.806,42-42,42
			s-42-18.806-42-42C699.374,376.784,718.18,357.999,741.374,357.999z"/>
		<path id="NYN-55" fill="#FFFFFF" d="M670.687,359.999c22.09,0,40,17.9,40,40c0,22.09-17.91,40-40,40s-40-17.91-40-40
			C630.687,377.899,648.597,359.999,670.687,359.999z"/>
		<path id="NYN-54" opacity="0.5" fill="#FFFFFF" d="M600,412.325c18.776,0,34,15.207,34,34c0,18.776-15.224,34-34,34
			s-34-15.224-34-34C566,427.532,581.224,412.325,600,412.325z"/>
		<path id="NYN-53" opacity="0.5" fill="#FFFFFF" d="M529.313,551.303c18.768,0,34,15.207,34,34c0,18.776-15.232,34-34,34
			c-18.785,0-34-15.224-34-34C495.313,566.51,510.529,551.303,529.313,551.303z"/>
		<path id="NYN-52" fill="#FFFFFF" d="M458.626,506.977c17.672,0,32,14.312,32,32c0,17.672-14.328,32-32,32s-32-14.328-32-32
			C426.626,521.289,440.954,506.977,458.626,506.977z"/>
		<path id="NYN-51" opacity="0.5" fill="#FFFFFF" d="M387.939,516.977c12.149,0,22,9.84,22,22c0,12.149-9.851,22-22,22
			c-12.155,0-22-9.851-22-22C365.939,526.816,375.785,516.977,387.939,516.977z"/>
		<path id="NYN-50" fill="#FFFFFF" d="M317.253,609.628c12.144,0,22,9.84,22,22c0,12.149-9.856,22-22,22c-12.16,0-22-9.851-22-22
			C295.253,619.468,305.093,609.628,317.253,609.628z"/>
		<path id="NYN-49" opacity="0.5" fill="#FFFFFF" d="M246.565,559.303c14.358,0,26,11.629,26,26c0,14.358-11.642,26-26,26
			c-14.365,0-26-11.642-26-26C220.565,570.932,232.201,559.303,246.565,559.303z"/>
		<path id="NYN-48" fill="#FFFFFF" d="M175.879,555.303c16.567,0,30,13.418,30,30c0,16.567-13.433,30-30,30
			c-16.575,0-30-13.433-30-30C145.879,568.721,159.304,555.303,175.879,555.303z"/>
		<path id="NYN-47" opacity="0.5" fill="#FFFFFF" d="M105.191,603.628c15.47,0,28,12.523,28,28c0,15.463-12.53,28-28,28
			c-15.463,0-28-12.537-28-28C77.191,616.151,89.729,603.628,105.191,603.628z"/>
		<path id="NYN-46" fill="#FFFFFF" d="M34.505,706.279c9.94,0,18,8.051,18,18c0,9.94-8.06,18-18,18c-9.945,0-18-8.06-18-18
			C16.505,714.33,24.56,706.279,34.505,706.279z"/>
	</g>
	<g id="GOL">
		<path id="GOL-62" fill="#FFFFFF" d="M1165.494,202.696c6.627,0,12,5.367,12,12c0,6.627-5.373,12-12,12s-12-5.373-12-12
			C1153.494,208.063,1158.867,202.696,1165.494,202.696z"/>
		<path id="GOL-61" opacity="0.5" fill="#FFFFFF" d="M1094.808,146.371c12.16,0,22,9.84,22,22c0,12.149-9.84,22-22,22
			c-12.14,0-22-9.851-22-22C1072.808,156.21,1082.668,146.371,1094.808,146.371z"/>
		<path id="GOL-60" opacity="0.5" fill="#FFFFFF" d="M1024.121,186.696c15.464,0,28,12.523,28,28c0,15.463-12.536,28-28,28
			s-28-12.537-28-28C996.121,199.22,1008.657,186.696,1024.121,186.696z"/>
		<path id="GOL-59" opacity="0.5" fill="#FFFFFF" d="M953.435,182.696c17.672,0,32,14.312,32,32c0,17.672-14.328,32-32,32
			s-32-14.328-32-32C921.435,197.009,935.763,182.696,953.435,182.696z"/>
		<path id="GOL-58" opacity="0.5" fill="#FFFFFF" d="M882.747,329.674c13.254,0,24,10.734,24,24c0,13.254-10.746,24-24,24
			s-24-10.746-24-24C858.747,340.408,869.493,329.674,882.747,329.674z"/>
		<path id="GOL-57" opacity="0.5" fill="#FFFFFF" d="M812.061,333.674c11.045,0,20,8.945,20,20c0,11.045-8.955,20-20,20
			s-20-8.955-20-20C792.061,342.619,801.016,333.674,812.061,333.674z"/>
		<path id="GOL-56" opacity="0.5" fill="#FFFFFF" d="M741.374,379.999c11.045,0,20,8.945,20,20c0,11.045-8.955,20-20,20
			s-20-8.955-20-20C721.374,388.944,730.329,379.999,741.374,379.999z"/>
		<path id="GOL-55" fill="#FFFFFF" d="M670.687,337.674c8.836,0,16,7.156,16,16c0,8.836-7.164,16-16,16s-16-7.164-16-16
			C654.687,344.83,661.851,337.674,670.687,337.674z"/>
		<path id="GOL-54" fill="#FFFFFF" d="M600,422.325c13.254,0,24,10.734,24,24c0,13.254-10.746,24-24,24s-24-10.746-24-24
			C576,433.06,586.746,422.325,600,422.325z"/>
		<path id="GOL-53" opacity="0.5" fill="#FFFFFF" d="M529.313,561.303c13.248,0,24,10.734,24,24c0,13.254-10.752,24-24,24
			c-13.26,0-24-10.746-24-24C505.313,572.037,516.054,561.303,529.313,561.303z"/>
		<path id="GOL-52" fill="#FFFFFF" d="M458.626,567.303c9.94,0,18,8.051,18,18c0,9.94-8.06,18-18,18s-18-8.06-18-18
			C440.626,575.354,448.686,567.303,458.626,567.303z"/>
		<path id="GOL-51" fill="#FFFFFF" d="M387.939,526.977c6.627,0,12,5.367,12,12c0,6.627-5.373,12-12,12c-6.63,0-12-5.373-12-12
			C375.939,532.344,381.31,526.977,387.939,526.977z"/>
		<path id="GOL-50" opacity="0.5" fill="#FFFFFF" d="M317.253,520.977c9.932,0,18,8.051,18,18s-8.068,18-18,18
			c-9.949,0-18-8.051-18-18S307.304,520.977,317.253,520.977z"/>
		<path id="GOL-49" fill="#FFFFFF" d="M246.565,623.628c4.418,0,8,3.578,8,8c0,4.418-3.582,8-8,8c-4.42,0-8-3.582-8-8
			C238.565,627.206,242.146,623.628,246.565,623.628z"/>
		<path id="GOL-48" fill="#FFFFFF" d="M175.879,524.977c7.731,0,14,6.262,14,14c0,7.731-6.269,14-14,14c-7.735,0-14-6.269-14-14
			C161.879,531.238,168.144,524.977,175.879,524.977z"/>
		<path id="GOL-47" fill="#FFFFFF" d="M105.191,613.628c9.945,0,18,8.051,18,18c0,9.94-8.055,18-18,18c-9.94,0-18-8.06-18-18
			C87.191,621.679,95.251,613.628,105.191,613.628z"/>
		<path id="GOL-46" fill="#FFFFFF" d="M34.505,659.954c9.94,0,18,8.051,18,18c0,9.94-8.06,18-18,18c-9.945,0-18-8.06-18-18
			C16.505,668.005,24.56,659.954,34.505,659.954z"/>
	</g>
	<g id="DET">
		<path id="DET-62" fill="#FFFFFF" d="M1165.495,245.022c8.836,0,16,7.156,16,16c0,8.836-7.164,16-16,16s-16-7.164-16-16
			C1149.495,252.179,1156.659,245.022,1165.495,245.022z"/>
		<path id="DET-61" fill="#FFFFFF" d="M1094.808,241.022c11.055,0,20,8.945,20,20c0,11.045-8.945,20-20,20c-11.035,0-20-8.955-20-20
			C1074.808,249.968,1083.772,241.022,1094.808,241.022z"/>
		<path id="DET-60" opacity="0.5" fill="#FFFFFF" d="M1024.121,192.696c12.15,0,22,9.84,22,22c0,12.149-9.85,22-22,22
			s-22-9.851-22-22C1002.121,202.536,1011.971,192.696,1024.121,192.696z"/>
		<path id="DET-59" opacity="0.5" fill="#FFFFFF" d="M953.435,285.348c12.149,0,22,9.84,22,22c0,12.149-9.851,22-22,22
			s-22-9.851-22-22C931.435,295.188,941.285,285.348,953.435,285.348z"/>
		<path id="DET-58" opacity="0.5" fill="#FFFFFF" d="M882.747,337.674c8.836,0,16,7.156,16,16c0,8.836-7.164,16-16,16
			s-16-7.164-16-16C866.747,344.83,873.911,337.674,882.747,337.674z"/>
		<path id="DET-57_1_" opacity="0.5" fill="#FFFFFF" d="M812.061,333.674c11.045,0,20,8.945,20,20c0,11.045-8.955,20-20,20
			s-20-8.955-20-20C792.061,342.619,801.016,333.674,812.061,333.674z"/>
		<path id="DET-56" fill="#FFFFFF" d="M741.374,430.325c8.836,0,16,7.156,16,16c0,8.836-7.164,16-16,16s-16-7.164-16-16
			C725.374,437.481,732.538,430.325,741.374,430.325z"/>
		<path id="DET-55" opacity="0.5" fill="#FFFFFF" d="M670.687,428.325c9.94,0,18,8.051,18,18c0,9.94-8.06,18-18,18s-18-8.06-18-18
			C652.687,436.376,660.746,428.325,670.687,428.325z"/>
		<path id="DET-54" opacity="0.5" fill="#FFFFFF" d="M600,478.651c7.731,0,14,6.262,14,14c0,7.731-6.269,14-14,14s-14-6.269-14-14
			C586,484.913,592.269,478.651,600,478.651z"/>
		<path id="DET-53" fill="#FFFFFF" d="M529.313,569.303c8.832,0,16,7.156,16,16c0,8.836-7.168,16-16,16c-8.84,0-16-7.164-16-16
			C513.313,576.459,520.474,569.303,529.313,569.303z"/>
	</g>
	<g id="BOS">
		<path id="BOS-62" opacity="0.5" fill="#FFFFFF" d="M1165.494,178.696c19.881,0,36,16.102,36,36c0,19.881-16.119,36-36,36
			s-36-16.119-36-36C1129.494,194.798,1145.613,178.696,1165.494,178.696z"/>
		<path id="BOS-61" opacity="0.5" fill="#FFFFFF" d="M1094.808,186.696c15.477,0,28,12.523,28,28c0,15.463-12.523,28-28,28
			c-15.447,0-28-12.537-28-28C1066.808,199.22,1079.36,186.696,1094.808,186.696z"/>
		<path id="BOS-60" opacity="0.5" fill="#FFFFFF" d="M1024.121,186.696c15.464,0,28,12.523,28,28c0,15.463-12.536,28-28,28
			s-28-12.537-28-28C996.121,199.22,1008.657,186.696,1024.121,186.696z"/>
		<path id="BOS-59" fill="#FFFFFF" d="M953.435,136.371c17.672,0,32,14.312,32,32c0,17.68-14.328,32-32,32s-32-14.32-32-32
			C921.435,150.684,935.763,136.371,953.435,136.371z"/>
		<path id="BOS-58" opacity="0.5" fill="#FFFFFF" d="M882.747,229.022c17.672,0,32,14.312,32,32c0,17.672-14.328,32-32,32
			s-32-14.328-32-32C850.747,243.335,865.075,229.022,882.747,229.022z"/>
		<path id="BOS-57" opacity="0.5" fill="#FFFFFF" d="M812.061,273.348c18.776,0,34,15.215,34,34c0,18.768-15.224,34-34,34
			s-34-15.232-34-34C778.061,288.563,793.284,273.348,812.061,273.348z"/>
		<path id="BOS-56" fill="#FFFFFF" d="M741.374,311.674c23.194,0,42,18.785,42,42c0,23.194-18.806,42-42,42s-42-18.806-42-42
			C699.374,330.459,718.18,311.674,741.374,311.674z"/>
		<path id="BOS-55" opacity="0.5" fill="#FFFFFF" d="M670.687,321.674c17.672,0,32,14.312,32,32c0,17.672-14.328,32-32,32
			s-32-14.328-32-32C638.687,335.986,653.015,321.674,670.687,321.674z"/>
		<path id="BOS-54" fill="#FFFFFF" d="M600,372c15.463,0,28,12.525,28,28.003C628,415.461,615.463,428,600,428s-28-12.539-28-27.997
			C572,384.524,584.537,372,600,372z"/>
		<path id="BOS-53" fill="#FFFFFF" d="M529.313,462.651c16.56,0,30,13.418,30,30c0,16.567-13.44,30-30,30c-16.575,0-30-13.433-30-30
			C499.313,476.069,512.739,462.651,529.313,462.651z"/>
		<path id="BOS-52" fill="#FFFFFF" d="M458.626,466.651c14.358,0,26,11.629,26,26c0,14.358-11.642,26-26,26s-26-11.642-26-26
			C432.626,478.28,444.268,466.651,458.626,466.651z"/>
		<path id="BOS-51" fill="#FFFFFF" d="M387.939,470.651c12.149,0,22,9.84,22,22c0,12.149-9.851,22-22,22c-12.155,0-22-9.851-22-22
			C365.939,480.491,375.785,470.651,387.939,470.651z"/>
		<path id="BOS-50" opacity="0.5" fill="#FFFFFF" d="M317.253,514.977c13.242,0,24,10.734,24,24s-10.758,24-24,24
			c-13.266,0-24-10.734-24-24S303.987,514.977,317.253,514.977z"/>
		<path id="BOS-49" opacity="0.5" fill="#FFFFFF" d="M246.565,567.303c9.94,0,18,8.051,18,18c0,9.94-8.06,18-18,18
			c-9.945,0-18-8.06-18-18C228.565,575.354,236.621,567.303,246.565,567.303z"/>
		<path id="BOS-48" fill="#FFFFFF" d="M175.879,611.628c11.045,0,20,8.945,20,20c0,11.045-8.955,20-20,20c-11.05,0-20-8.955-20-20
			C155.879,620.573,164.829,611.628,175.879,611.628z"/>
		<path id="BOS-47" fill="#FFFFFF" d="M105.191,661.954c8.84,0,16,7.156,16,16c0,8.836-7.16,16-16,16c-8.836,0-16-7.164-16-16
			C89.191,669.11,96.355,661.954,105.191,661.954z"/>
		<path id="BOS-46" fill="#FFFFFF" d="M34.505,756.605c7.731,0,14,6.262,14,14c0,7.731-6.269,14-14,14c-7.735,0-14-6.269-14-14
			C20.505,762.867,26.77,756.605,34.505,756.605z"/>
	</g>
	<g id="ATL">
		<path id="ATL-62" fill="#FFFFFF" d="M1165.495,277.348c16.568,0,30,13.418,30,30c0,16.567-13.432,30-30,30
			c-16.566,0-30-13.433-30-30C1135.495,290.766,1148.929,277.348,1165.495,277.348z"/>
		<path id="ATL-61" opacity="0.5" fill="#FFFFFF" d="M1094.808,184.696c16.582,0,30,13.418,30,30c0,16.567-13.418,30-30,30
			c-16.551,0-30-13.433-30-30C1064.808,198.114,1078.257,184.696,1094.808,184.696z"/>
		<path id="ATL-60" opacity="0.5" fill="#FFFFFF" d="M1024.121,180.696c18.777,0,34,15.207,34,34c0,18.776-15.223,34-34,34
			s-34-15.224-34-34C990.121,195.903,1005.344,180.696,1024.121,180.696z"/>
		<path id="ATL-59" fill="#FFFFFF" d="M953.435,227.022c18.776,0,34,15.207,34,34c0,18.776-15.224,34-34,34s-34-15.224-34-34
			C919.435,242.229,934.658,227.022,953.435,227.022z"/>
		<path id="ATL-58" fill="#FFFFFF" d="M882.747,273.348c18.776,0,34,15.207,34,34c0,18.777-15.224,34-34,34s-34-15.223-34-34
			C848.747,288.555,863.971,273.348,882.747,273.348z"/>
		<path id="ATL-57" fill="#FFFFFF" d="M812.061,279.348c15.463,0,28,12.53,28,28c0,15.456-12.537,28-28,28s-28-12.544-28-28
			C784.061,291.878,796.598,279.348,812.061,279.348z"/>
		<path id="ATL-56" opacity="0.5" fill="#FFFFFF" d="M741.374,371.999c15.463,0,28,12.523,28,28c0,15.463-12.537,28-28,28
			s-28-12.537-28-28C713.374,384.522,725.911,371.999,741.374,371.999z"/>
		<path id="ATL-55" opacity="0.5" fill="#FFFFFF" d="M670.687,422.325c13.254,0,24,10.734,24,24c0,13.254-10.746,24-24,24
			s-24-10.746-24-24C646.687,433.06,657.433,422.325,670.687,422.325z"/>
		<path id="ATL-54" fill="#FFFFFF" d="M600,524.977c7.731,0,14,6.262,14,14c0,7.731-6.269,14-14,14s-14-6.269-14-14
			C586,531.238,592.269,524.977,600,524.977z"/>
		<path id="ATL-53" fill="#FFFFFF" d="M529.313,667.954c5.52,0,10,4.473,10,10c0,5.522-4.48,10-10,10c-5.525,0-10-4.478-10-10
			C519.313,672.427,523.789,667.954,529.313,667.954z"/>
		<path id="ATL-52" fill="#FFFFFF" d="M458.626,607.628c13.254,0,24,10.734,24,24c0,13.254-10.746,24-24,24s-24-10.746-24-24
			C434.626,618.362,445.372,607.628,458.626,607.628z"/>
		<path id="ATL-50" fill="#FFFFFF" d="M317.253,526.977c6.621,0,12,5.367,12,12s-5.379,12-12,12c-6.633,0-12-5.367-12-12
			S310.62,526.977,317.253,526.977z"/>
	</g>
	<g id="LAL">
		<path id="LAL-62" opacity="0.5" fill="#FFFFFF" d="M1165.495,227.022c18.776,0,34,15.207,34,34c0,18.776-15.224,34-34,34
			s-34-15.224-34-34C1131.495,242.229,1146.719,227.022,1165.495,227.022z"/>
		<path id="LAL-61" opacity="0.5" fill="#FFFFFF" d="M1094.808,190.696c13.266,0,24,10.734,24,24c0,13.254-10.734,24-24,24
			c-13.24,0-24-10.746-24-24C1070.808,201.431,1081.567,190.696,1094.808,190.696z"/>
		<path id="LAL-60" fill="#FFFFFF" d="M1024.121,241.022c11.045,0,20,8.945,20,20c0,11.045-8.955,20-20,20s-20-8.955-20-20
			C1004.121,249.968,1013.076,241.022,1024.121,241.022z"/>
		<path id="LAL-59" opacity="0.5" fill="#FFFFFF" d="M953.435,291.348c8.836,0,16,7.156,16,16c0,8.836-7.164,16-16,16
			s-16-7.164-16-16C937.435,298.504,944.599,291.348,953.435,291.348z"/>
		<path id="LAL-58" opacity="0.5" fill="#FFFFFF" d="M882.747,323.674c16.567,0,30,13.418,30,30c0,16.567-13.433,30-30,30
			s-30-13.433-30-30C852.747,337.092,866.18,323.674,882.747,323.674z"/>
		<path id="LAL-57" opacity="0.5" fill="#FFFFFF" d="M812.061,335.674c9.94,0,18,8.051,18,18c0,9.94-8.06,18-18,18s-18-8.06-18-18
			C794.061,343.725,802.12,335.674,812.061,335.674z"/>
		<path id="LAL-56" fill="#FFFFFF" d="M741.374,389.999c5.522,0,10,4.473,10,10c0,5.522-4.478,10-10,10s-10-4.478-10-10
			C731.374,394.472,735.852,389.999,741.374,389.999z"/>
		<path id="LAL-55" opacity="0.5" fill="#FFFFFF" d="M670.687,335.674c9.94,0,18,8.051,18,18c0,9.94-8.06,18-18,18s-18-8.06-18-18
			C652.687,343.725,660.746,335.674,670.687,335.674z"/>
		<path id="LAL-50" opacity="0.5" fill="#FFFFFF" d="M317.253,516.977c12.139,0,22,9.84,22,22s-9.861,22-22,22
			c-12.16,0-22-9.84-22-22S305.093,516.977,317.253,516.977z"/>
	</g>
	</svg>