<?xml version="1.0" encoding="utf-8"?>
<!-- Generator: Adobe Illustrator 16.0.4, SVG Export Plug-In . SVG Version: 6.00 Build 0)  -->
<!DOCTYPE svg PUBLIC "-//W3C//DTD SVG 1.1//EN" "http://www.w3.org/Graphics/SVG/1.1/DTD/svg11.dtd">
<svg version="1.1"
	 id="SAC_x5F_logo" xmlns:dc="http://purl.org/dc/elements/1.1/" xmlns:cc="http://creativecommons.org/ns#" xmlns:rdf="http://www.w3.org/1999/02/22-rdf-syntax-ns#" xmlns:svg="http://www.w3.org/2000/svg"
	 xmlns="http://www.w3.org/2000/svg" xmlns:xlink="http://www.w3.org/1999/xlink" x="0px" y="0px" width="300px" height="300px"
	 viewBox="30.709 70.571 300 300" enable-background="new 30.709 70.571 300 300" xml:space="preserve">
<g>
	<path fill-rule="evenodd" clip-rule="evenodd" fill="#FFFFFF" d="M178.367,370.071c-11.213-7.308-22.421-14.623-33.641-21.92
		c-8.252-5.365-16.582-10.615-24.757-16.094c-4.608-3.09-6.903-7.525-6.895-13.224c0.055-32.111-0.018-64.224,0.084-96.335
		c0.013-3.836-0.609-7.35-2.194-10.822c-6.054-13.264-12.053-26.555-17.997-39.869c-5.643-12.637-11.194-25.315-16.765-37.984
		c-0.234-0.533-0.248-1.163-0.498-2.417c15.175,7.584,29.824,14.906,45.074,22.529c0.664-17.325,1.307-34.088,1.949-50.852
		c0.231-0.074,0.464-0.149,0.696-0.224c9.088,9.984,18.177,19.968,27.506,30.217c9.832-20.754,19.449-41.053,29.375-62.005
		c9.892,20.969,19.502,41.343,29.344,62.207c9.488-10.306,18.691-20.301,28.306-30.744c0.59,17.544,1.158,34.421,1.747,51.935
		c4.539-2.245,8.559-4.236,12.58-6.222c10.442-5.154,20.883-10.312,31.337-15.439c0.637-0.313,1.394-0.38,2.094-0.562
		c-5.048,11.098-10.138,22.178-15.134,33.3c-5.678,12.635-11.102,25.387-16.965,37.935c-3.891,8.328-6.367,16.564-6.177,26.096
		c0.579,29.09,0.211,58.199,0.205,87.301c-0.001,1.279-0.033,2.561-0.113,3.838c-0.325,5.178-2.64,9.191-7.036,11.999
		c-13.749,8.78-27.51,17.544-41.226,26.376c-5.556,3.578-11.009,7.316-16.507,10.98
		C181.296,370.071,179.831,370.071,178.367,370.071z M180.298,362.056c0.934-0.515,1.474-0.774,1.975-1.095
		c4.448-2.848,8.885-5.713,13.334-8.559c13.189-8.436,26.342-16.93,39.601-25.254c3.652-2.293,5.163-5.295,5.155-9.524
		c-0.063-30.476-0.032-60.951-0.043-91.427c0-1.062-0.116-2.124-0.195-3.465c-20.027,0-39.758,0-59.528,0c0-2.711,0-5.116,0-7.715
		c1.315,0,2.402,0,3.49,0c17.847,0,35.692,0.012,53.538-0.031c1.006-0.002,2.538-0.123,2.921-0.744c1.339-2.176,2.28-4.595,3.69-7.6
		c-21.737,0-42.72,0-63.87,0c0-2.591,0.129-4.699-0.036-6.782c-0.166-2.103,0.568-2.869,2.705-3.004
		c4.836-0.306,9.164-2.065,13.129-5.343c-5.303-5.229-8.525-11.399-9.302-19.026c-2.175,0-4.229,0-6.324,0c0-1.651,0-2.975,0-4.646
		c2.206,0,4.25,0,6.315,0c0.892-7.54,4.177-13.585,9.48-19.101c-2.764-1.395-5.098-2.861-7.632-3.771
		c-2.609-0.936-5.413-1.328-8.39-2.017c0-17.716,0-35.495,0-53.273c-0.165-0.038-0.331-0.077-0.496-0.115
		c-8.925,18.763-17.849,37.525-26.978,56.718c-7.882-8.634-15.397-16.868-22.914-25.101c-0.222,0.098-0.443,0.196-0.664,0.294
		c-0.491,14.618-0.981,29.237-1.488,44.312c-12.491-6.232-24.59-12.268-37.152-18.536c0.316,1.144,0.408,1.764,0.653,2.316
		c3.258,7.335,6.536,14.661,9.812,21.987c4.913,10.988,9.891,21.948,14.684,32.988c0.781,1.799,1.569,2.453,3.553,2.442
		c16.016-0.088,32.031-0.05,48.047-0.049c3.569,0,7.141-0.062,10.706,0.058c0.685,0.023,1.88,0.712,1.926,1.183
		c0.21,2.139,0.092,4.31,0.092,6.699c-20.079,0-39.795,0-59.638,0c0,2.751,0,5.26,0,8.309c19.979,0,39.757,0,59.844,0
		C180.298,269.702,180.298,315.679,180.298,362.056z M160.712,324.46c-5.09-3.341-9.412-6.805-14.265-9.187
		c-4.772-2.342-6.037-5.652-5.329-10.446c0.134-0.909,0.007-2.333-0.573-2.787c-2.095-1.641-4.434-2.97-7.186-4.741
		c0,5.969,0.082,11.229-0.049,16.484c-0.042,1.691,0.483,2.621,1.9,3.521c8.306,5.276,16.536,10.673,24.808,16.004
		c2.621,1.689,5.291,3.305,8.143,5.081c0.195-0.813,0.349-1.153,0.35-1.491c0.011-15.693,0.055-31.388-0.088-47.08
		c-0.01-1.146-1.113-2.67-2.148-3.36c-6.98-4.649-13.982-9.288-21.189-13.573c-3.065-1.823-4.188-3.866-4.013-7.424
		c0.32-6.55,0.092-13.125,0.092-19.523c6.633,0,12.961,0,19.659,0c0,4.363,0,8.326,0,12.558c2.094,0,3.816-0.04,5.538,0.012
		c1.657,0.05,2.204-0.701,2.187-2.325c-0.059-5.385-0.052-10.771,0.041-16.154c0.029-1.696-0.619-2.223-2.238-2.225
		c-10.336-0.014-20.672-0.07-31.008-0.169c-1.589-0.015-2.067,0.692-2.062,2.14c0.046,10.851,0.004,21.702,0.177,32.551
		c0.02,1.169,0.953,2.744,1.945,3.41c7.857,5.274,15.853,10.344,23.74,15.574c0.752,0.499,1.493,1.668,1.502,2.533
		C160.75,303.809,160.712,313.778,160.712,324.46z M206.175,167.831c-0.466-5.975-2.623-11.068-6.717-15.579
		c-4.357,4.455-7.28,9.323-7.884,15.579C196.634,167.831,201.351,167.831,206.175,167.831z M199.522,188.411
		c4.109-4.46,6.066-9.531,6.702-15.387c-4.87,0-9.665,0-14.743,0C192.378,179.111,195.016,184.02,199.522,188.411z"/>
	<path fill-rule="evenodd" clip-rule="evenodd" fill="#FFFFFF" d="M206.953,261.969c3.334-5.095,6.874-9.918,6.03-16.549
		c-0.58-4.561-0.111-9.256-0.111-14.184c6.883,0,13.354-0.041,19.823,0.074c0.54,0.01,1.516,1.07,1.522,1.651
		c0.099,8.233,0.449,16.497-0.139,24.689c-0.216,3.013-2.647,5.903-4.205,8.774c-2.088,3.843-4.271,7.635-6.488,11.406
		c-0.895,1.523-0.546,2.42,0.92,3.322c2.789,1.721,5.568,3.488,8.156,5.489c0.907,0.702,1.74,2.142,1.757,3.257
		c0.137,9.422,0.13,18.849,0.007,28.271c-0.014,1.074-0.712,2.562-1.573,3.133c-6.296,4.175-12.716,8.164-19.575,12.516
		c-0.086-1.341-0.195-2.264-0.197-3.188c-0.014-8.602-0.008-17.203-0.008-25.804c0-5.719-0.208-6.037-5.896-8.694
		c-0.048,1.049-0.129,1.995-0.13,2.941c-0.009,12.353-0.048,24.705,0.041,37.057c0.013,1.791-0.577,2.812-2.039,3.729
		c-5.707,3.581-11.345,7.271-17.025,10.895c-0.59,0.376-1.291,0.574-2.407,1.056c0-1.309,0-2.269,0-3.228
		c0-37.973-0.001-75.946,0.002-113.919c0-3.602,0.011-3.608,3.596-3.613c5.032-0.006,10.067,0.078,15.097-0.037
		c2.129-0.049,2.826,0.613,2.795,2.811c-0.124,8.669-0.057,17.342-0.051,26.014C206.854,260.549,206.919,261.26,206.953,261.969z
		 M192.507,238.241c0,33.844,0,67.299,0,101.184c2.248-1.457,4.174-2.516,5.855-3.878c0.764-0.619,1.476-1.837,1.478-2.785
		c0.063-30.554,0.036-61.106,0.023-91.66c0-0.958,0-1.914,0-2.86C197.145,238.241,194.895,238.241,192.507,238.241z
		 M219.641,238.336c0,4.326,0.154,8.514-0.066,12.68c-0.107,2.018-0.543,4.199-1.48,5.959c-4.527,8.513-9.237,16.93-13.979,25.326
		c-1.031,1.824-0.766,2.818,1.007,3.945c4.223,2.684,8.265,5.653,12.486,8.339c1.514,0.962,2.08,2.04,2.061,3.781
		c-0.071,6.581-0.035,13.163-0.019,19.745c0.002,0.928,0.116,1.855,0.2,3.127c2.058-1.31,3.607-2.438,5.285-3.326
		c1.771-0.937,2.283-2.246,2.248-4.205c-0.114-6.58-0.101-13.164-0.006-19.744c0.025-1.77-0.551-2.818-2.059-3.765
		c-3.545-2.226-6.934-4.7-10.437-6.997c-1.272-0.835-1.387-1.611-0.642-2.924c2.789-4.91,5.155-10.09,8.268-14.779
		c4.078-6.146,5.598-12.669,4.87-19.908c-0.241-2.398-0.038-4.841-0.038-7.254C224.567,238.336,222.311,238.336,219.641,238.336z"/>
	<path fill-rule="evenodd" clip-rule="evenodd" fill="#FFFFFF" d="M180.088,167.465c-2.291,0-4.093,0-5.589,0
		c-1.182-3.495-1.967-6.886-3.458-9.933c-1.497-3.061-3.698-5.778-5.721-8.845c3.774-2.675,8.071-4.644,13.021-4.836
		c0.563-0.021,1.664,0.889,1.672,1.379C180.121,152.594,180.088,159.958,180.088,167.465z"/>
	<path fill-rule="evenodd" clip-rule="evenodd" fill="#FFFFFF" d="M165.817,192.01c2.438-4.605,4.716-8.89,6.964-13.19
		c0.247-0.472,0.344-1.03,0.471-1.557c1.165-4.801,1.162-4.802,6.668-4.165c0,7.772,0,15.567,0,23.656
		C174.378,196.535,169.479,195.151,165.817,192.01z"/>
	<path fill-rule="evenodd" clip-rule="evenodd" fill="#FFFFFF" d="M161.074,152.694c4.449,3.978,6.88,8.779,7.735,14.655
		c-4.764,0-9.358,0-14.127,0C155.445,161.767,157.219,156.859,161.074,152.694z"/>
	<path fill-rule="evenodd" clip-rule="evenodd" fill="#FFFFFF" d="M154.66,172.893c4.851,0,9.28,0,13.982,0
		c-0.412,6.117-3.334,10.683-7.471,14.927C157.363,183.444,155.39,178.598,154.66,172.893z"/>
</g>
</svg>
