<?xml version="1.0" encoding="utf-8"?>
<!-- Generator: Adobe Illustrator 16.0.4, SVG Export Plug-In . SVG Version: 6.00 Build 0)  -->
<!DOCTYPE svg PUBLIC "-//W3C//DTD SVG 1.1//EN" "http://www.w3.org/Graphics/SVG/1.1/DTD/svg11.dtd">
<svg version="1.1" id="vis-1" xmlns="http://www.w3.org/2000/svg" xmlns:xlink="http://www.w3.org/1999/xlink" x="0px" y="0px"
	 width="1920px" height="1080px" viewBox="0 0 1920 1080" enable-background="new 0 0 1920 1080" xml:space="preserve">
<g id="points">
	<circle fill="#FFFFFF" cx="168.778" cy="1079.022" r="3.192"/>
	<circle fill="#FFFFFF" cx="281.598" cy="1079.022" r="3.192"/>
	<circle fill="#FFFFFF" cx="394.415" cy="1079.022" r="3.192"/>
	<circle fill="#FFFFFF" cx="507.234" cy="1079.022" r="3.192"/>
	<circle fill="#FFFFFF" cx="620.051" cy="1079.022" r="3.192"/>
	<circle fill="#FFFFFF" cx="732.869" cy="1079.022" r="3.192"/>
	<circle fill="#FFFFFF" cx="845.688" cy="1079.022" r="3.192"/>
	<circle fill="#FFFFFF" cx="620.051" cy="709.339" r="3.192"/>
	<circle fill="#FFFFFF" cx="732.869" cy="709.339" r="3.192"/>
	<circle fill="#FFFFFF" cx="845.688" cy="709.339" r="3.192"/>
	<circle fill="#FFFFFF" cx="958.505" cy="1079.022" r="3.192"/>
	<circle fill="#FFFFFF" cx="1071.323" cy="1079.022" r="3.192"/>
	<circle fill="#FFFFFF" cx="1184.142" cy="1079.022" r="3.192"/>
	<circle fill="#FFFFFF" cx="1296.959" cy="1079.022" r="3.192"/>
	<circle fill="#FFFFFF" cx="1409.775" cy="1079.022" r="3.192"/>
	<circle fill="#FFFFFF" cx="1522.596" cy="1079.022" r="3.192"/>
	<circle fill="#FFFFFF" cx="1635.412" cy="1079.022" r="3.192"/>
	<circle fill="#FFFFFF" cx="1748.23" cy="1079.022" r="3.192"/>
	<circle fill="#FFFFFF" cx="1861.049" cy="1079.022" r="3.192"/>
	<circle fill="#FFFFFF" cx="394.415" cy="1005.086" r="3.192"/>
	<circle fill="#FFFFFF" cx="507.234" cy="1005.086" r="3.192"/>
	<circle fill="#FFFFFF" cx="620.051" cy="1005.086" r="3.192"/>
	<circle fill="#FFFFFF" cx="732.869" cy="1005.086" r="3.192"/>
	<circle fill="#FFFFFF" cx="958.505" cy="1005.086" r="3.192"/>
	<circle fill="#FFFFFF" cx="1071.323" cy="1005.086" r="3.192"/>
	<circle fill="#FFFFFF" cx="1184.142" cy="1005.086" r="3.192"/>
	<circle fill="#FFFFFF" cx="1296.959" cy="1005.086" r="3.192"/>
	<circle fill="#FFFFFF" cx="1409.775" cy="1005.086" r="3.192"/>
	<circle fill="#FFFFFF" cx="1522.596" cy="1005.086" r="3.192"/>
	<circle fill="#FFFFFF" cx="1635.412" cy="1005.086" r="3.192"/>
	<circle fill="#FFFFFF" cx="1748.23" cy="1005.086" r="3.192"/>
	<circle fill="#FFFFFF" cx="1861.049" cy="1005.086" r="3.192"/>
	<circle fill="#FFFFFF" cx="168.778" cy="1152.96" r="3.192"/>
	<circle fill="#FFFFFF" cx="281.598" cy="1152.96" r="3.192"/>
	<circle fill="#FFFFFF" cx="394.415" cy="1152.96" r="3.192"/>
	<circle fill="#FFFFFF" cx="507.234" cy="1152.96" r="3.192"/>
	<circle fill="#FFFFFF" cx="620.051" cy="1152.96" r="3.192"/>
	<circle fill="#FFFFFF" cx="732.869" cy="1152.96" r="3.192"/>
	<circle fill="#FFFFFF" cx="845.688" cy="1152.96" r="3.192"/>
	<circle fill="#FFFFFF" cx="958.505" cy="1152.96" r="3.192"/>
	<circle fill="#FFFFFF" cx="1071.323" cy="1152.96" r="3.192"/>
	<circle fill="#FFFFFF" cx="1184.142" cy="1152.96" r="3.192"/>
	<circle fill="#FFFFFF" cx="1296.959" cy="1152.96" r="3.192"/>
	<circle fill="#FFFFFF" cx="1409.775" cy="1152.96" r="3.192"/>
	<circle fill="#FFFFFF" cx="1522.596" cy="1152.96" r="3.192"/>
	<circle fill="#FFFFFF" cx="1635.412" cy="1152.96" r="3.192"/>
	<circle fill="#FFFFFF" cx="1748.23" cy="1152.96" r="3.192"/>
	<circle fill="#FFFFFF" cx="1861.049" cy="1152.96" r="3.192"/>
	<circle fill="#FFFFFF" cx="55.962" cy="857.213" r="3.192"/>
	<circle fill="#FFFFFF" cx="168.778" cy="857.213" r="3.192"/>
	<circle fill="#FFFFFF" cx="507.234" cy="857.213" r="3.192"/>
	<circle fill="#FFFFFF" cx="620.051" cy="857.213" r="3.192"/>
	<circle fill="#FFFFFF" cx="958.505" cy="857.213" r="3.192"/>
	<circle fill="#FFFFFF" cx="1071.323" cy="857.213" r="3.192"/>
	<circle fill="#FFFFFF" cx="1184.142" cy="857.213" r="3.192"/>
	<circle fill="#FFFFFF" cx="1296.959" cy="857.213" r="3.192"/>
	<circle fill="#FFFFFF" cx="1409.775" cy="857.213" r="3.192"/>
	<circle fill="#FFFFFF" cx="1522.596" cy="857.213" r="3.192"/>
	<circle fill="#FFFFFF" cx="1635.412" cy="857.213" r="3.192"/>
	<circle fill="#FFFFFF" cx="1748.23" cy="857.213" r="3.192"/>
	<circle fill="#FFFFFF" cx="1861.049" cy="857.213" r="3.192"/>
	<circle fill="#FFFFFF" cx="55.962" cy="783.276" r="3.192"/>
	<circle fill="#FFFFFF" cx="168.778" cy="783.276" r="3.192"/>
	<circle fill="#FFFFFF" cx="394.415" cy="783.276" r="3.192"/>
	<circle fill="#FFFFFF" cx="845.688" cy="783.276" r="3.192"/>
	<circle fill="#FFFFFF" cx="1071.323" cy="783.276" r="3.192"/>
	<circle fill="#FFFFFF" cx="1184.142" cy="783.276" r="3.192"/>
	<circle fill="#FFFFFF" cx="1296.959" cy="783.276" r="3.192"/>
	<circle fill="#FFFFFF" cx="1409.775" cy="783.276" r="3.192"/>
	<circle fill="#FFFFFF" cx="1522.596" cy="783.276" r="3.192"/>
	<circle fill="#FFFFFF" cx="1635.412" cy="783.276" r="3.192"/>
	<circle fill="#FFFFFF" cx="1748.23" cy="783.276" r="3.192"/>
	<circle fill="#FFFFFF" cx="1861.049" cy="783.276" r="3.192"/>
	<circle fill="#FFFFFF" cx="55.962" cy="931.149" r="3.192"/>
	<circle fill="#FFFFFF" cx="620.051" cy="931.149" r="3.192"/>
	<circle fill="#FFFFFF" cx="732.869" cy="857.213" r="3.192"/>
	<circle fill="#FFFFFF" cx="845.687" cy="857.213" r="3.192"/>
	<circle fill="#FFFFFF" cx="732.869" cy="931.149" r="3.192"/>
	<circle fill="#FFFFFF" cx="507.234" cy="931.149" r="3.192"/>
	<circle fill="#FFFFFF" cx="394.415" cy="857.213" r="3.192"/>
	<circle fill="#FFFFFF" cx="394.415" cy="931.149" r="3.192"/>
	<circle fill="#FFFFFF" cx="845.688" cy="931.149" r="3.192"/>
	<circle fill="#FFFFFF" cx="845.688" cy="1005.087" r="3.192"/>
	<circle fill="#FFFFFF" cx="958.505" cy="931.149" r="3.192"/>
	<circle fill="#FFFFFF" cx="958.505" cy="709.338" r="3.192"/>
	<circle fill="#FFFFFF" cx="958.505" cy="783.274" r="3.192"/>
	<circle fill="#FFFFFF" cx="1071.323" cy="931.149" r="3.192"/>
	<circle fill="#FFFFFF" cx="1184.142" cy="931.149" r="3.192"/>
	<circle fill="#FFFFFF" cx="1296.959" cy="931.149" r="3.192"/>
	<circle fill="#FFFFFF" cx="1409.775" cy="931.149" r="3.192"/>
	<circle fill="#FFFFFF" cx="1522.596" cy="931.149" r="3.192"/>
	<circle fill="#FFFFFF" cx="1635.412" cy="931.149" r="3.192"/>
	<circle fill="#FFFFFF" cx="1748.23" cy="931.149" r="3.192"/>
	<circle fill="#FFFFFF" cx="1861.049" cy="931.149" r="3.192"/>
	<circle fill="#FFFFFF" cx="55.962" cy="635.401" r="3.192"/>
	<circle fill="#FFFFFF" cx="168.778" cy="635.401" r="3.192"/>
	<circle fill="#FFFFFF" cx="281.598" cy="635.401" r="3.192"/>
	<circle fill="#FFFFFF" cx="394.415" cy="635.401" r="3.192"/>
	<circle fill="#FFFFFF" cx="507.234" cy="635.401" r="3.192"/>
	<circle fill="#FFFFFF" cx="620.051" cy="635.401" r="3.192"/>
	<circle fill="#FFFFFF" cx="732.869" cy="635.401" r="3.192"/>
	<circle fill="#FFFFFF" cx="845.688" cy="635.401" r="3.192"/>
	<circle fill="#FFFFFF" cx="958.505" cy="635.401" r="3.192"/>
	<circle fill="#FFFFFF" cx="1071.324" cy="635.401" r="3.192"/>
	<circle fill="#FFFFFF" cx="1071.324" cy="561.464" r="3.192"/>
	<circle fill="#FFFFFF" cx="1071.324" cy="487.528" r="3.192"/>
	<circle fill="#FFFFFF" cx="1296.959" cy="635.401" r="3.192"/>
	<circle fill="#FFFFFF" cx="1409.775" cy="635.401" r="3.192"/>
	<circle fill="#FFFFFF" cx="1522.596" cy="635.401" r="3.192"/>
	<circle fill="#FFFFFF" cx="1635.412" cy="635.401" r="3.192"/>
	<circle fill="#FFFFFF" cx="1748.23" cy="635.401" r="3.192"/>
	<circle fill="#FFFFFF" cx="1861.049" cy="635.401" r="3.192"/>
	<circle fill="#FFFFFF" cx="55.962" cy="561.464" r="3.192"/>
	<circle fill="#FFFFFF" cx="168.778" cy="561.464" r="3.192"/>
	<circle fill="#FFFFFF" cx="281.598" cy="561.464" r="3.192"/>
	<circle fill="#FFFFFF" cx="394.415" cy="561.464" r="3.192"/>
	<circle fill="#FFFFFF" cx="507.234" cy="561.464" r="3.192"/>
	<circle fill="#FFFFFF" cx="620.051" cy="561.464" r="3.192"/>
	<circle fill="#FFFFFF" cx="732.869" cy="561.464" r="3.192"/>
	<circle fill="#FFFFFF" cx="845.688" cy="561.464" r="3.192"/>
	<circle fill="#FFFFFF" cx="958.505" cy="561.464" r="3.192"/>
	<circle fill="#FFFFFF" cx="1409.775" cy="561.464" r="3.192"/>
	<circle fill="#FFFFFF" cx="1522.596" cy="561.464" r="3.192"/>
	<circle fill="#FFFFFF" cx="1635.412" cy="561.464" r="3.192"/>
	<circle fill="#FFFFFF" cx="1748.23" cy="561.464" r="3.192"/>
	<circle fill="#FFFFFF" cx="1861.049" cy="561.464" r="3.192"/>
	<circle fill="#FFFFFF" cx="55.962" cy="709.339" r="3.192"/>
	<circle fill="#FFFFFF" cx="168.778" cy="709.339" r="3.192"/>
	<circle fill="#FFFFFF" cx="281.598" cy="709.339" r="3.192"/>
	<circle fill="#FFFFFF" cx="394.415" cy="709.339" r="3.192"/>
	<circle fill="#FFFFFF" cx="507.234" cy="709.339" r="3.192"/>
	<circle fill="#FFFFFF" cx="620.051" cy="783.276" r="3.192"/>
	<circle fill="#FFFFFF" cx="281.598" cy="857.213" r="3.192"/>
	<circle fill="#FFFFFF" cx="281.598" cy="931.149" r="3.192"/>
	<circle fill="#FFFFFF" cx="281.598" cy="783.276" r="3.192"/>
	<circle fill="#FFFFFF" cx="732.869" cy="783.276" r="3.192"/>
	<circle fill="#FFFFFF" cx="507.234" cy="783.276" r="3.192"/>
	<circle fill="#FFFFFF" cx="1071.323" cy="709.339" r="3.192"/>
	<circle fill="#FFFFFF" cx="1184.142" cy="709.339" r="3.192"/>
	<circle fill="#FFFFFF" cx="1296.959" cy="709.339" r="3.192"/>
	<circle fill="#FFFFFF" cx="1409.775" cy="709.339" r="3.192"/>
	<circle fill="#FFFFFF" cx="1522.596" cy="709.339" r="3.192"/>
	<circle fill="#FFFFFF" cx="1635.412" cy="709.339" r="3.192"/>
	<circle fill="#FFFFFF" cx="1748.23" cy="709.339" r="3.192"/>
	<circle fill="#FFFFFF" cx="1861.049" cy="709.339" r="3.192"/>
	<circle fill="#FFFFFF" cx="55.962" cy="413.591" r="3.192"/>
	<circle fill="#FFFFFF" cx="168.778" cy="413.591" r="3.192"/>
	<circle fill="#FFFFFF" cx="281.598" cy="413.591" r="3.192"/>
	<circle fill="#FFFFFF" cx="394.415" cy="413.591" r="3.192"/>
	<circle fill="#FFFFFF" cx="507.234" cy="413.591" r="3.192"/>
	<circle fill="#FFFFFF" cx="620.051" cy="413.591" r="3.192"/>
	<circle fill="#FFFFFF" cx="732.869" cy="413.592" r="3.192"/>
	<circle fill="#FFFFFF" cx="845.688" cy="413.591" r="3.192"/>
	<circle fill="#FFFFFF" cx="958.505" cy="413.591" r="3.192"/>
	<circle fill="#FFFFFF" cx="1071.323" cy="413.591" r="3.192"/>
	<circle fill="#FFFFFF" cx="1184.142" cy="413.592" r="3.192"/>
	<circle fill="#FFFFFF" cx="1635.412" cy="413.591" r="3.192"/>
	<circle fill="#FFFFFF" cx="1748.23" cy="413.591" r="3.192"/>
	<circle fill="#FFFFFF" cx="55.962" cy="339.654" r="3.192"/>
	<circle fill="#FFFFFF" cx="168.778" cy="339.654" r="3.192"/>
	<circle fill="#FFFFFF" cx="281.598" cy="339.654" r="3.192"/>
	<circle fill="#FFFFFF" cx="394.415" cy="339.654" r="3.192"/>
	<circle fill="#FFFFFF" cx="507.234" cy="339.654" r="3.192"/>
	<circle fill="#FFFFFF" cx="620.051" cy="339.654" r="3.192"/>
	<circle fill="#FFFFFF" cx="732.869" cy="339.654" r="3.192"/>
	<circle fill="#FFFFFF" cx="845.688" cy="339.654" r="3.192"/>
	<circle fill="#FFFFFF" cx="958.505" cy="339.654" r="3.192"/>
	<circle fill="#FFFFFF" cx="1071.323" cy="339.654" r="3.192"/>
	<circle fill="#FFFFFF" cx="1184.142" cy="339.654" r="3.192"/>
	<circle fill="#FFFFFF" cx="1296.959" cy="339.654" r="3.192"/>
	<circle fill="#FFFFFF" cx="55.962" cy="265.716" r="3.192"/>
	<circle fill="#FFFFFF" cx="168.778" cy="265.716" r="3.192"/>
	<circle fill="#FFFFFF" cx="281.598" cy="265.716" r="3.192"/>
	<circle fill="#FFFFFF" cx="394.415" cy="265.716" r="3.192"/>
	<circle fill="#FFFFFF" cx="507.234" cy="265.716" r="3.192"/>
	<circle fill="#FFFFFF" cx="620.051" cy="265.716" r="3.192"/>
	<circle fill="#FFFFFF" cx="732.869" cy="265.716" r="3.192"/>
	<circle fill="#FFFFFF" cx="845.688" cy="265.716" r="3.192"/>
	<circle fill="#FFFFFF" cx="958.505" cy="265.716" r="3.192"/>
	<circle fill="#FFFFFF" cx="1071.323" cy="265.716" r="3.192"/>
	<circle fill="#FFFFFF" cx="1184.142" cy="265.716" r="3.192"/>
	<circle fill="#FFFFFF" cx="1184.142" cy="635.402" r="3.192"/>
	<circle fill="#FFFFFF" cx="1184.142" cy="561.463" r="3.192"/>
	<circle fill="#FFFFFF" cx="1184.142" cy="487.526" r="3.192"/>
	<circle fill="#FFFFFF" cx="1296.96" cy="413.592" r="3.192"/>
	<circle fill="#FFFFFF" cx="1296.96" cy="561.463" r="3.192"/>
	<circle fill="#FFFFFF" cx="1296.96" cy="487.526" r="3.192"/>
	<circle fill="#FFFFFF" cx="1409.775" cy="339.654" r="3.192"/>
	<circle fill="#FFFFFF" cx="1409.776" cy="413.592" r="3.192"/>
	<circle fill="#FFFFFF" cx="1409.776" cy="487.526" r="3.192"/>
	<circle fill="#FFFFFF" cx="1296.959" cy="265.716" r="3.192"/>
	<circle fill="#FFFFFF" cx="1409.775" cy="265.716" r="3.192"/>
	<circle fill="#FFFFFF" cx="55.962" cy="191.781" r="3.192"/>
	<circle fill="#FFFFFF" cx="168.778" cy="191.781" r="3.192"/>
	<circle fill="#FFFFFF" cx="281.598" cy="191.781" r="3.192"/>
	<circle fill="#FFFFFF" cx="394.415" cy="191.781" r="3.192"/>
	<circle fill="#FFFFFF" cx="507.234" cy="191.781" r="3.192"/>
	<circle fill="#FFFFFF" cx="620.051" cy="191.781" r="3.192"/>
	<circle fill="#FFFFFF" cx="732.869" cy="191.779" r="3.192"/>
	<circle fill="#FFFFFF" cx="845.688" cy="191.781" r="3.192"/>
	<circle fill="#FFFFFF" cx="958.505" cy="191.781" r="3.192"/>
	<circle fill="#FFFFFF" cx="1071.323" cy="191.781" r="3.192"/>
	<circle fill="#FFFFFF" cx="1184.142" cy="191.779" r="3.192"/>
	<circle fill="#FFFFFF" cx="1296.959" cy="191.781" r="3.192"/>
	<circle fill="#FFFFFF" cx="1409.775" cy="191.781" r="3.192"/>
	<circle fill="#FFFFFF" cx="1635.412" cy="191.781" r="3.192"/>
	<circle fill="#FFFFFF" cx="1861.049" cy="191.781" r="3.192"/>
	<circle fill="#FFFFFF" cx="55.962" cy="487.528" r="3.192"/>
	<circle fill="#FFFFFF" cx="168.778" cy="487.528" r="3.192"/>
	<circle fill="#FFFFFF" cx="281.598" cy="487.528" r="3.192"/>
	<circle fill="#FFFFFF" cx="394.415" cy="487.528" r="3.192"/>
	<circle fill="#FFFFFF" cx="507.234" cy="487.528" r="3.192"/>
	<circle fill="#FFFFFF" cx="620.051" cy="487.528" r="3.192"/>
	<circle fill="#FFFFFF" cx="732.869" cy="487.528" r="3.192"/>
	<circle fill="#FFFFFF" cx="845.688" cy="487.528" r="3.192"/>
	<circle fill="#FFFFFF" cx="958.505" cy="487.528" r="3.192"/>
	<circle fill="#FFFFFF" cx="1522.596" cy="487.528" r="3.192"/>
	<circle fill="#FFFFFF" cx="1522.596" cy="339.654" r="3.192"/>
	<circle fill="#FFFFFF" cx="1522.596" cy="265.717" r="3.192"/>
	<circle fill="#FFFFFF" cx="1635.412" cy="339.654" r="3.192"/>
	<circle fill="#FFFFFF" cx="1635.412" cy="265.717" r="3.192"/>
	<circle fill="#FFFFFF" cx="1748.23" cy="191.781" r="3.192"/>
	<circle fill="#FFFFFF" cx="1748.23" cy="339.654" r="3.192"/>
	<circle fill="#FFFFFF" cx="1748.23" cy="265.717" r="3.192"/>
	<circle fill="#FFFFFF" cx="1861.049" cy="413.591" r="3.192"/>
	<circle fill="#FFFFFF" cx="1861.049" cy="339.654" r="3.192"/>
	<circle fill="#FFFFFF" cx="1861.049" cy="265.717" r="3.192"/>
	<circle fill="#FFFFFF" cx="1522.596" cy="413.591" r="3.192"/>
	<circle fill="#FFFFFF" cx="1522.596" cy="191.781" r="3.192"/>
	<circle fill="#FFFFFF" cx="1635.412" cy="487.528" r="3.192"/>
	<circle fill="#FFFFFF" cx="1748.23" cy="487.528" r="3.192"/>
	<circle fill="#FFFFFF" cx="1861.049" cy="487.528" r="3.192"/>
	<circle fill="#FFFFFF" cx="281.598" cy="1005.086" r="3.192"/>
	<circle fill="#FFFFFF" cx="168.778" cy="931.149" r="3.192"/>
	<circle fill="#FFFFFF" cx="168.778" cy="1005.086" r="3.192"/>
	<circle fill="#FFFFFF" cx="55.962" cy="1079.022" r="3.192"/>
	<circle fill="#FFFFFF" cx="55.962" cy="1152.96" r="3.192"/>
	<circle fill="#FFFFFF" cx="55.962" cy="1005.086" r="3.192"/>
</g>
<g id="SAC">
	<path id="SAC-62" opacity="0.5" fill="#FFFFFF" enable-background="new    " d="M1861.047,240.18
		c14.103,0,25.536,11.421,25.536,25.537c0,14.103-11.434,25.536-25.536,25.536s-25.537-11.434-25.537-25.536
		C1835.51,251.603,1846.944,240.18,1861.047,240.18z"/>
	<path id="SAC-61" fill="#FFFFFF" d="M1748.23,163.052c15.879,0,28.729,12.85,28.729,28.729c0,15.865-12.85,28.729-28.729,28.729
		c-15.854,0-28.729-12.864-28.729-28.729C1719.502,175.9,1732.377,163.052,1748.23,163.052z"/>
	<path id="SAC-60" opacity="0.5" fill="#FFFFFF" enable-background="new    " d="M1635.412,224.22
		c22.917,0,41.496,18.56,41.496,41.497c0,22.916-18.579,41.497-41.496,41.497c-22.918,0-41.497-18.581-41.497-41.497
		C1593.915,242.78,1612.494,224.22,1635.412,224.22z"/>
	<path id="SAC-59" fill="#FFFFFF" d="M1522.596,400.822c7.051,0,12.768,5.711,12.768,12.769c0,7.052-5.717,12.769-12.768,12.769
		c-7.052,0-12.769-5.717-12.769-12.769C1509.827,406.533,1515.545,400.822,1522.596,400.822z"/>
	<path id="SAC-58" fill="#FFFFFF" d="M1409.775,471.568c8.813,0,15.961,7.139,15.961,15.96c0,8.813-7.147,15.96-15.961,15.96
		c-8.812,0-15.96-7.146-15.96-15.96C1393.815,478.705,1400.963,471.568,1409.775,471.568z"/>
	<path id="SAC-57" fill="#FFFFFF" d="M1296.959,532.735c15.865,0,28.729,12.856,28.729,28.729c0,15.864-12.863,28.729-28.729,28.729
		c-15.864,0-28.729-12.864-28.729-28.729C1268.23,545.592,1281.094,532.735,1296.959,532.735z"/>
	<path id="SAC-56" opacity="0.5" fill="#FFFFFF" enable-background="new    " d="M1184.142,606.673
		c15.864,0,28.728,12.85,28.728,28.729c0,15.864-12.863,28.729-28.728,28.729c-15.865,0-28.729-12.864-28.729-28.729
		C1155.413,619.522,1168.276,606.673,1184.142,606.673z"/>
	<path id="SAC-55" opacity="0.5" fill="#FFFFFF" enable-background="new    " d="M1071.323,606.673
		c15.864,0,28.729,12.85,28.729,28.729c0,15.864-12.864,28.729-28.729,28.729s-28.729-12.864-28.729-28.729
		C1042.595,619.522,1055.457,606.673,1071.323,606.673z"/>
	<path id="SAC-54" fill="#FFFFFF" d="M958.505,693.379c8.813,0,15.96,7.139,15.96,15.96c0,8.813-7.146,15.96-15.96,15.96
		s-15.96-7.146-15.96-15.96C942.545,700.518,949.691,693.379,958.505,693.379z"/>
	<path id="SAC-49" fill="#FFFFFF" d="M394.415,841.253c8.813,0,15.96,7.14,15.96,15.961c0,8.812-7.147,15.96-15.96,15.96
		c-8.818,0-15.96-7.147-15.96-15.96C378.454,848.391,385.598,841.253,394.415,841.253z"/>
	<path id="SAC-48" opacity="0.5" fill="#FFFFFF" enable-background="new    " d="M281.598,735.396
		c26.441,0,47.88,21.415,47.88,47.881c0,26.441-21.439,47.881-47.88,47.881c-26.454,0-47.881-21.439-47.881-47.881
		C233.717,756.811,255.144,735.396,281.598,735.396z"/>
</g>
<g id="PHI">
	<path id="PHI-62" opacity="0.5" fill="#FFFFFF" enable-background="new    " d="M1861.047,227.412
		c21.153,0,38.305,17.132,38.305,38.305c0,21.154-17.151,38.304-38.305,38.304c-21.154,0-38.305-17.15-38.305-38.304
		C1822.742,244.545,1839.893,227.412,1861.047,227.412z"/>
	<path id="PHI-61" fill="#FFFFFF" d="M1748.23,240.18c14.115,0,25.536,11.421,25.536,25.537c0,14.103-11.421,25.536-25.536,25.536
		c-14.088,0-25.537-11.434-25.537-25.536C1722.693,251.603,1734.141,240.18,1748.23,240.18z"/>
	<path id="PHI-60" opacity="0.5" fill="#FFFFFF" enable-background="new    " d="M1635.412,240.18
		c14.103,0,25.536,11.421,25.536,25.537c0,14.103-11.434,25.536-25.536,25.536c-14.104,0-25.537-11.434-25.537-25.536
		C1609.875,251.603,1621.309,240.18,1635.412,240.18z"/>
	<path id="PHI-59" fill="#FFFFFF" d="M1522.596,240.18c14.103,0,25.536,11.421,25.536,25.537c0,14.103-11.434,25.536-25.536,25.536
		s-25.537-11.434-25.537-25.536C1497.059,251.603,1508.493,240.18,1522.596,240.18z"/>
	<path id="PHI-58" fill="#FFFFFF" d="M1409.775,310.925c15.865,0,28.729,12.85,28.729,28.729c0,15.864-12.863,28.729-28.729,28.729
		c-15.864,0-28.729-12.864-28.729-28.729C1381.047,323.774,1393.911,310.925,1409.775,310.925z"/>
	<path id="PHI-57" opacity="0.5" fill="#FFFFFF" enable-background="new    " d="M1296.959,458.8
		c15.865,0,28.729,12.85,28.729,28.729c0,15.864-12.863,28.729-28.729,28.729c-15.864,0-28.729-12.864-28.729-28.729
		C1268.23,471.649,1281.094,458.8,1296.959,458.8z"/>
	<path id="PHI-56" opacity="0.5" fill="#FFFFFF" enable-background="new    " d="M1184.142,535.928
		c14.103,0,25.536,11.421,25.536,25.536c0,14.103-11.434,25.536-25.536,25.536s-25.537-11.434-25.537-25.536
		C1158.604,547.349,1170.039,535.928,1184.142,535.928z"/>
	<path id="PHI-55" opacity="0.5" fill="#FFFFFF" enable-background="new    " d="M1071.323,606.673
		c15.864,0,28.729,12.85,28.729,28.729c0,15.864-12.864,28.729-28.729,28.729s-28.729-12.864-28.729-28.729
		C1042.595,619.522,1055.457,606.673,1071.323,606.673z"/>
	<path id="PHI-51" opacity="0.5" fill="#FFFFFF" enable-background="new    " d="M620.051,674.227
		c19.39,0,35.112,15.705,35.112,35.112c0,19.39-15.723,35.112-35.112,35.112c-19.399,0-35.112-15.723-35.112-35.112
		C584.938,689.932,600.652,674.227,620.051,674.227z"/>
</g>
<g id="NYN">
	<path id="NYN-62" opacity="0.5" fill="#FFFFFF" enable-background="new    " d="M1861.049,356.134
		c31.731,0,57.456,25.699,57.456,57.457c0,31.73-25.725,57.457-57.456,57.457c-31.729,0-57.457-25.727-57.457-57.457
		C1803.592,381.833,1829.319,356.134,1861.049,356.134z"/>
	<path id="NYN-61" opacity="0.5" fill="#FFFFFF" enable-background="new    " d="M1748.23,288.581
		c28.23,0,51.072,22.842,51.072,51.072c0,28.205-22.842,51.073-51.072,51.073c-28.18,0-51.073-22.868-51.073-51.073
		C1697.157,311.425,1720.049,288.581,1748.23,288.581z"/>
	<path id="NYN-60" opacity="0.5" fill="#FFFFFF" enable-background="new    " d="M1635.412,275.812
		c35.256,0,63.841,28.555,63.841,63.841c0,35.257-28.585,63.841-63.841,63.841s-63.841-28.584-63.841-63.841
		C1571.571,304.367,1600.156,275.812,1635.412,275.812z"/>
	<path id="NYN-59" opacity="0.5" fill="#FFFFFF" enable-background="new    " d="M1522.596,195.491
		c38.781,0,70.225,31.41,70.225,70.225c0,38.782-31.443,70.225-70.225,70.225c-38.782,0-70.226-31.443-70.226-70.225
		C1452.37,226.901,1483.813,195.491,1522.596,195.491z"/>
	<path id="NYN-58" opacity="0.5" fill="#FFFFFF" enable-background="new    " d="M1409.775,343.366
		c38.782,0,70.226,31.409,70.226,70.225c0,38.783-31.443,70.226-70.226,70.226c-38.781,0-70.225-31.442-70.225-70.226
		C1339.551,374.775,1370.994,343.366,1409.775,343.366z"/>
	<path id="NYN-57" opacity="0.5" fill="#FFFFFF" enable-background="new    " d="M1296.959,352.942
		c33.493,0,60.649,27.14,60.649,60.648c0,33.479-27.156,60.649-60.649,60.649c-33.492,0-60.648-27.171-60.648-60.649
		C1236.311,380.084,1263.465,352.942,1296.959,352.942z"/>
	<path id="NYN-56" opacity="0.5" fill="#FFFFFF" enable-background="new    " d="M1184.142,494.431
		c37.018,0,67.032,29.981,67.032,67.033c0,37.019-30.015,67.033-67.032,67.033c-37.019,0-67.033-30.015-67.033-67.033
		C1117.108,524.412,1147.123,494.431,1184.142,494.431z"/>
	<path id="NYN-55" fill="#FFFFFF" d="M1071.323,497.623c35.256,0,63.841,28.569,63.841,63.841c0,35.257-28.585,63.841-63.841,63.841
		c-35.257,0-63.841-28.584-63.841-63.841C1007.482,526.192,1036.066,497.623,1071.323,497.623z"/>
	<path id="NYN-54" opacity="0.5" fill="#FFFFFF" enable-background="new    " d="M958.505,581.137
		c29.967,0,54.265,24.271,54.265,54.265c0,29.967-24.298,54.265-54.265,54.265s-54.265-24.298-54.265-54.265
		C904.24,605.407,928.538,581.137,958.505,581.137z"/>
	<path id="NYN-53" opacity="0.5" fill="#FFFFFF" enable-background="new    " d="M845.688,802.949
		c29.953,0,54.264,24.271,54.264,54.265c0,29.967-24.311,54.265-54.264,54.265c-29.982,0-54.266-24.298-54.266-54.265
		C791.422,827.22,815.707,802.949,845.688,802.949z"/>
	<path id="NYN-52" fill="#FFFFFF" d="M732.869,732.203c28.205,0,51.072,22.843,51.072,51.073c0,28.205-22.867,51.072-51.072,51.072
		s-51.073-22.867-51.073-51.072C681.796,755.046,704.664,732.203,732.869,732.203z"/>
	<path id="NYN-51" opacity="0.5" fill="#FFFFFF" enable-background="new    " d="M620.051,748.164
		c19.39,0,35.112,15.704,35.112,35.112c0,19.39-15.723,35.112-35.112,35.112c-19.399,0-35.112-15.723-35.112-35.112
		C584.938,763.867,600.652,748.164,620.051,748.164z"/>
	<path id="NYN-50" fill="#FFFFFF" d="M507.234,896.037c19.382,0,35.112,15.705,35.112,35.112c0,19.39-15.73,35.112-35.112,35.112
		c-19.408,0-35.112-15.723-35.112-35.112C472.122,911.742,487.826,896.037,507.234,896.037z"/>
	<path id="NYN-49" opacity="0.5" fill="#FFFFFF" enable-background="new    " d="M394.415,815.717
		c22.916,0,41.497,18.561,41.497,41.497c0,22.915-18.581,41.496-41.497,41.496c-22.927,0-41.497-18.581-41.497-41.496
		C352.918,834.277,371.489,815.717,394.415,815.717z"/>
	<path id="NYN-48" fill="#FFFFFF" d="M281.598,809.333c26.441,0,47.88,21.415,47.88,47.881c0,26.441-21.439,47.88-47.88,47.88
		c-26.454,0-47.881-21.438-47.881-47.88C233.717,830.748,255.144,809.333,281.598,809.333z"/>
	<path id="NYN-47" opacity="0.5" fill="#FFFFFF" enable-background="new    " d="M168.778,886.461
		c24.69,0,44.688,19.986,44.688,44.688c0,24.679-19.998,44.688-44.688,44.688c-24.679,0-44.688-20.01-44.688-44.688
		C124.09,906.447,144.101,886.461,168.778,886.461z"/>
	<path id="NYN-46" fill="#FFFFFF" d="M55.962,1050.294c15.864,0,28.729,12.85,28.729,28.729c0,15.864-12.864,28.729-28.729,28.729
		c-15.873,0-28.729-12.864-28.729-28.729C27.233,1063.144,40.089,1050.294,55.962,1050.294z"/>
</g>
<g id="GOL">
	<path id="GOL-62" fill="#FFFFFF" d="M1861.047,246.564c10.576,0,19.152,8.566,19.152,19.152c0,10.577-8.576,19.152-19.152,19.152
		c-10.577,0-19.152-8.576-19.152-19.152C1841.895,255.13,1850.47,246.564,1861.047,246.564z"/>
	<path id="GOL-61" opacity="0.5" fill="#FFFFFF" enable-background="new    " d="M1748.23,156.668
		c19.407,0,35.112,15.705,35.112,35.112c0,19.39-15.705,35.113-35.112,35.113c-19.376,0-35.113-15.723-35.113-35.113
		C1713.117,172.371,1728.854,156.668,1748.23,156.668z"/>
	<path id="GOL-60" opacity="0.5" fill="#FFFFFF" enable-background="new    " d="M1635.412,221.027
		c24.681,0,44.688,19.987,44.688,44.689c0,24.679-20.008,44.689-44.688,44.689c-24.682,0-44.689-20.01-44.689-44.689
		C1590.723,241.016,1610.73,221.027,1635.412,221.027z"/>
	<path id="GOL-59" opacity="0.5" fill="#FFFFFF" enable-background="new    " d="M1522.596,214.644
		c28.205,0,51.072,22.842,51.072,51.073c0,28.205-22.867,51.073-51.072,51.073s-51.073-22.868-51.073-51.073
		C1471.522,237.487,1494.391,214.644,1522.596,214.644z"/>
	<path id="GOL-58" opacity="0.5" fill="#FFFFFF" enable-background="new    " d="M1409.775,449.224
		c21.154,0,38.305,17.132,38.305,38.305c0,21.153-17.15,38.305-38.305,38.305c-21.153,0-38.304-17.151-38.304-38.305
		C1371.472,466.355,1388.622,449.224,1409.775,449.224z"/>
	<path id="GOL-57" opacity="0.5" fill="#FFFFFF" enable-background="new    " d="M1296.959,455.607
		c17.628,0,31.921,14.277,31.921,31.921c0,17.628-14.293,31.921-31.921,31.921s-31.92-14.293-31.92-31.921
		C1265.039,469.885,1279.331,455.607,1296.959,455.607z"/>
	<path id="GOL-56" opacity="0.5" fill="#FFFFFF" enable-background="new    " d="M1184.142,529.544
		c17.628,0,31.92,14.276,31.92,31.92c0,17.628-14.292,31.921-31.92,31.921s-31.921-14.293-31.921-31.921
		C1152.221,543.82,1166.513,529.544,1184.142,529.544z"/>
	<path id="GOL-55" fill="#FFFFFF" d="M1071.323,461.992c14.103,0,25.536,11.421,25.536,25.536c0,14.103-11.434,25.536-25.536,25.536
		s-25.536-11.434-25.536-25.536C1045.787,473.413,1057.221,461.992,1071.323,461.992z"/>
	<path id="GOL-54" fill="#FFFFFF" d="M958.505,597.097c21.153,0,38.305,17.132,38.305,38.305c0,21.153-17.151,38.305-38.305,38.305
		S920.2,656.555,920.2,635.401C920.2,614.23,937.352,597.097,958.505,597.097z"/>
	<path id="GOL-53" opacity="0.5" fill="#FFFFFF" enable-background="new    " d="M845.688,818.909
		c21.144,0,38.304,17.132,38.304,38.305c0,21.153-17.16,38.304-38.304,38.304c-21.164,0-38.305-17.15-38.305-38.304
		C807.383,836.041,824.525,818.909,845.688,818.909z"/>
	<path id="GOL-52" fill="#FFFFFF" d="M732.869,828.485c15.864,0,28.729,12.85,28.729,28.729c0,15.864-12.864,28.729-28.729,28.729
		c-15.865,0-28.729-12.864-28.729-28.729C704.141,841.335,717.004,828.485,732.869,828.485z"/>
	<path id="GOL-51" fill="#FFFFFF" d="M620.051,764.124c10.577,0,19.152,8.565,19.152,19.152c0,10.577-8.575,19.152-19.152,19.152
		c-10.582,0-19.152-8.575-19.152-19.152C600.898,772.689,609.471,764.124,620.051,764.124z"/>
	<path id="GOL-50" opacity="0.5" fill="#FFFFFF" enable-background="new    " d="M507.234,754.548
		c15.852,0,28.729,12.85,28.729,28.729s-12.877,28.729-28.729,28.729c-15.879,0-28.729-12.85-28.729-28.729
		S491.355,754.548,507.234,754.548z"/>
	<path id="GOL-49" fill="#FFFFFF" d="M394.415,918.381c7.051,0,12.768,5.711,12.768,12.769c0,7.051-5.717,12.769-12.768,12.769
		c-7.054,0-12.768-5.718-12.768-12.769C381.646,924.092,387.362,918.381,394.415,918.381z"/>
	<path id="GOL-48" fill="#FFFFFF" d="M281.598,760.932c12.339,0,22.344,9.994,22.344,22.345c0,12.339-10.005,22.344-22.344,22.344
		c-12.345,0-22.344-10.005-22.344-22.344C259.254,770.925,269.253,760.932,281.598,760.932z"/>
	<path id="GOL-47" fill="#FFFFFF" d="M168.778,902.421c15.873,0,28.729,12.85,28.729,28.729c0,15.864-12.856,28.729-28.729,28.729
		c-15.864,0-28.729-12.864-28.729-28.729C140.05,915.271,152.914,902.421,168.778,902.421z"/>
	<path id="GOL-46" fill="#FFFFFF" d="M55.962,976.358c15.864,0,28.729,12.85,28.729,28.729c0,15.864-12.864,28.729-28.729,28.729
		c-15.873,0-28.729-12.864-28.729-28.729C27.233,989.208,40.089,976.358,55.962,976.358z"/>
</g>
<g id="DET">
	<path id="DET-62" fill="#FFFFFF" d="M1861.049,314.117c14.102,0,25.535,11.421,25.535,25.536c0,14.103-11.434,25.536-25.535,25.536
		c-14.104,0-25.537-11.434-25.537-25.536C1835.512,325.54,1846.945,314.117,1861.049,314.117z"/>
	<path id="DET-61" fill="#FFFFFF" d="M1748.23,307.733c17.644,0,31.92,14.276,31.92,31.92c0,17.628-14.276,31.921-31.92,31.921
		c-17.612,0-31.921-14.293-31.921-31.921C1716.31,322.011,1730.616,307.733,1748.23,307.733z"/>
	<path id="DET-60" opacity="0.5" fill="#FFFFFF" enable-background="new    " d="M1635.412,230.604
		c19.392,0,35.112,15.705,35.112,35.113c0,19.39-15.721,35.113-35.112,35.113s-35.113-15.723-35.113-35.113
		C1600.299,246.309,1616.021,230.604,1635.412,230.604z"/>
	<path id="DET-59" opacity="0.5" fill="#FFFFFF" enable-background="new    " d="M1522.596,378.479
		c19.39,0,35.112,15.705,35.112,35.112c0,19.391-15.723,35.112-35.112,35.112c-19.391,0-35.112-15.722-35.112-35.112
		C1487.483,394.184,1503.204,378.479,1522.596,378.479z"/>
	<path id="DET-58" opacity="0.5" fill="#FFFFFF" enable-background="new    " d="M1409.775,461.992
		c14.103,0,25.537,11.421,25.537,25.536c0,14.103-11.435,25.536-25.537,25.536c-14.102,0-25.536-11.434-25.536-25.536
		C1384.239,473.413,1395.674,461.992,1409.775,461.992z"/>
	<path id="DET-57_1_" opacity="0.5" fill="#FFFFFF" enable-background="new    " d="M1296.959,455.607
		c17.628,0,31.921,14.277,31.921,31.921c0,17.628-14.293,31.921-31.921,31.921s-31.92-14.293-31.92-31.921
		C1265.039,469.885,1279.331,455.607,1296.959,455.607z"/>
	<path id="DET-56" fill="#FFFFFF" d="M1184.142,609.865c14.103,0,25.536,11.421,25.536,25.536c0,14.103-11.434,25.536-25.536,25.536
		s-25.537-11.434-25.537-25.536C1158.604,621.286,1170.039,609.865,1184.142,609.865z"/>
	<path id="DET-55" opacity="0.5" fill="#FFFFFF" enable-background="new    " d="M1071.323,606.673
		c15.864,0,28.729,12.85,28.729,28.729c0,15.864-12.864,28.729-28.729,28.729s-28.729-12.864-28.729-28.729
		C1042.595,619.522,1055.457,606.673,1071.323,606.673z"/>
	<path id="DET-54" opacity="0.5" fill="#FFFFFF" enable-background="new    " d="M958.505,686.994
		c12.339,0,22.345,9.994,22.345,22.345c0,12.339-10.006,22.345-22.345,22.345s-22.345-10.006-22.345-22.345
		C936.16,696.988,946.166,686.994,958.505,686.994z"/>
	<path id="DET-53" fill="#FFFFFF" d="M845.688,831.677c14.096,0,25.536,11.422,25.536,25.537c0,14.103-11.44,25.536-25.536,25.536
		c-14.109,0-25.537-11.434-25.537-25.536C820.15,843.099,831.58,831.677,845.688,831.677z"/>
</g>
<g id="BOS">
	<path id="BOS-62" opacity="0.5" fill="#FFFFFF" enable-background="new    " d="M1861.047,208.259
		c31.73,0,57.457,25.699,57.457,57.457c0,31.73-25.727,57.457-57.457,57.457s-57.457-25.726-57.457-57.457
		C1803.59,233.958,1829.316,208.259,1861.047,208.259z"/>
	<path id="BOS-61" opacity="0.5" fill="#FFFFFF" enable-background="new    " d="M1748.23,221.027
		c24.701,0,44.688,19.987,44.688,44.689c0,24.679-19.987,44.689-44.688,44.689c-24.654,0-44.689-20.01-44.689-44.689
		C1703.541,241.016,1723.574,221.027,1748.23,221.027z"/>
	<path id="BOS-60" opacity="0.5" fill="#FFFFFF" enable-background="new    " d="M1635.412,221.027
		c24.681,0,44.688,19.987,44.688,44.689c0,24.679-20.008,44.689-44.688,44.689c-24.682,0-44.689-20.01-44.689-44.689
		C1590.723,241.016,1610.73,221.027,1635.412,221.027z"/>
	<path id="BOS-59" fill="#FFFFFF" d="M1522.596,140.708c28.205,0,51.072,22.842,51.072,51.073c0,28.218-22.867,51.073-51.072,51.073
		s-51.073-22.855-51.073-51.073C1471.522,163.552,1494.391,140.708,1522.596,140.708z"/>
	<path id="BOS-58" opacity="0.5" fill="#FFFFFF" enable-background="new    " d="M1409.775,288.581
		c28.205,0,51.073,22.842,51.073,51.072c0,28.205-22.868,51.073-51.073,51.073c-28.204,0-51.072-22.868-51.072-51.073
		C1358.703,311.425,1381.571,288.581,1409.775,288.581z"/>
	<path id="BOS-57" opacity="0.5" fill="#FFFFFF" enable-background="new    " d="M1296.959,359.326
		c29.967,0,54.265,24.283,54.265,54.265c0,29.954-24.298,54.265-54.265,54.265s-54.265-24.311-54.265-54.265
		C1242.694,383.609,1266.99,359.326,1296.959,359.326z"/>
	<path id="BOS-56" fill="#FFFFFF" d="M1184.142,420.495c37.018,0,67.032,29.981,67.032,67.033c0,37.019-30.015,67.033-67.032,67.033
		c-37.019,0-67.033-30.015-67.033-67.033C1117.108,450.477,1147.123,420.495,1184.142,420.495z"/>
	<path id="BOS-55" opacity="0.5" fill="#FFFFFF" enable-background="new    " d="M1071.323,436.455
		c28.205,0,51.072,22.843,51.072,51.073c0,28.205-22.867,51.073-51.072,51.073s-51.073-22.868-51.073-51.073
		C1020.25,459.298,1043.118,436.455,1071.323,436.455z"/>
	<path id="BOS-54" fill="#FFFFFF" d="M958.505,516.777c24.68,0,44.688,19.99,44.688,44.693c0,24.671-20.009,44.684-44.688,44.684
		c-24.679,0-44.688-20.013-44.688-44.684C913.816,536.766,933.826,516.777,958.505,516.777z"/>
	<path id="BOS-53" fill="#FFFFFF" d="M845.688,661.458c26.43,0,47.88,21.416,47.88,47.881c0,26.441-21.45,47.881-47.88,47.881
		c-26.455,0-47.881-21.439-47.881-47.881C797.807,682.874,819.234,661.458,845.688,661.458z"/>
	<path id="BOS-52" fill="#FFFFFF" d="M732.869,667.842c22.915,0,41.496,18.561,41.496,41.497c0,22.916-18.581,41.497-41.496,41.497
		c-22.916,0-41.497-18.581-41.497-41.497C691.372,686.402,709.953,667.842,732.869,667.842z"/>
	<path id="BOS-51" fill="#FFFFFF" d="M620.051,674.227c19.39,0,35.112,15.705,35.112,35.112c0,19.39-15.723,35.112-35.112,35.112
		c-19.399,0-35.112-15.723-35.112-35.112C584.938,689.932,600.652,674.227,620.051,674.227z"/>
	<path id="BOS-50" opacity="0.5" fill="#FFFFFF" enable-background="new    " d="M507.234,744.972
		c21.135,0,38.305,17.132,38.305,38.305s-17.17,38.305-38.305,38.305c-21.173,0-38.305-17.132-38.305-38.305
		S486.062,744.972,507.234,744.972z"/>
	<path id="BOS-49" opacity="0.5" fill="#FFFFFF" enable-background="new    " d="M394.415,828.485
		c15.865,0,28.728,12.85,28.728,28.729c0,15.864-12.863,28.729-28.728,28.729c-15.873,0-28.729-12.864-28.729-28.729
		C365.686,841.335,378.544,828.485,394.415,828.485z"/>
	<path id="BOS-48" fill="#FFFFFF" d="M281.598,899.229c17.628,0,31.92,14.276,31.92,31.921c0,17.628-14.292,31.921-31.92,31.921
		c-17.636,0-31.92-14.293-31.92-31.921C249.678,913.505,263.962,899.229,281.598,899.229z"/>
	<path id="BOS-47" fill="#FFFFFF" d="M168.778,979.551c14.109,0,25.537,11.421,25.537,25.536c0,14.103-11.428,25.536-25.537,25.536
		c-14.103,0-25.536-11.434-25.536-25.536C143.242,990.972,154.676,979.551,168.778,979.551z"/>
	<path id="BOS-46" fill="#FFFFFF" d="M55.962,1130.615c12.339,0,22.344,9.994,22.344,22.345c0,12.339-10.005,22.345-22.344,22.345
		c-12.345,0-22.344-10.006-22.344-22.345C33.618,1140.609,43.617,1130.615,55.962,1130.615z"/>
</g>
<g id="ATL">
	<path id="ATL-62" fill="#FFFFFF" d="M1861.049,365.71c26.442,0,47.88,21.416,47.88,47.881c0,26.441-21.438,47.881-47.88,47.881
		c-26.44,0-47.881-21.439-47.881-47.881C1813.168,387.126,1834.608,365.71,1861.049,365.71z"/>
	<path id="ATL-61" opacity="0.5" fill="#FFFFFF" enable-background="new    " d="M1748.23,217.835
		c26.465,0,47.881,21.416,47.881,47.881c0,26.441-21.416,47.88-47.881,47.88c-26.416,0-47.881-21.439-47.881-47.88
		C1700.35,239.251,1721.814,217.835,1748.23,217.835z"/>
	<path id="ATL-60" opacity="0.5" fill="#FFFFFF" enable-background="new    " d="M1635.412,211.451
		c29.969,0,54.265,24.271,54.265,54.265c0,29.967-24.296,54.264-54.265,54.264s-54.265-24.297-54.265-54.264
		C1581.147,235.722,1605.443,211.451,1635.412,211.451z"/>
	<path id="ATL-59" fill="#FFFFFF" d="M1522.596,285.389c29.967,0,54.265,24.271,54.265,54.265c0,29.967-24.298,54.265-54.265,54.265
		s-54.265-24.298-54.265-54.265C1468.331,309.659,1492.627,285.389,1522.596,285.389z"/>
	<path id="ATL-58" fill="#FFFFFF" d="M1409.775,359.326c29.968,0,54.266,24.271,54.266,54.265c0,29.969-24.298,54.265-54.266,54.265
		c-29.967,0-54.265-24.296-54.265-54.265C1355.511,383.597,1379.809,359.326,1409.775,359.326z"/>
	<path id="ATL-57" fill="#FFFFFF" d="M1296.959,368.902c24.68,0,44.689,19.998,44.689,44.688c0,24.668-20.01,44.688-44.689,44.688
		c-24.679,0-44.688-20.021-44.688-44.688C1252.271,388.9,1272.28,368.902,1296.959,368.902z"/>
	<path id="ATL-56" opacity="0.5" fill="#FFFFFF" enable-background="new    " d="M1184.142,516.775
		c24.679,0,44.688,19.987,44.688,44.688c0,24.68-20.01,44.688-44.688,44.688c-24.68,0-44.688-20.009-44.688-44.688
		C1139.453,536.763,1159.462,516.775,1184.142,516.775z"/>
	<path id="ATL-55" opacity="0.5" fill="#FFFFFF" enable-background="new    " d="M1071.323,597.097
		c21.153,0,38.305,17.132,38.305,38.305c0,21.153-17.151,38.305-38.305,38.305s-38.305-17.151-38.305-38.305
		C1033.019,614.23,1050.17,597.097,1071.323,597.097z"/>
	<path id="ATL-54" fill="#FFFFFF" d="M958.505,760.932c12.339,0,22.345,9.994,22.345,22.345c0,12.339-10.006,22.344-22.345,22.344
		s-22.345-10.005-22.345-22.344C936.16,770.925,946.166,760.932,958.505,760.932z"/>
	<path id="ATL-53" fill="#FFFFFF" d="M845.688,989.127c8.81,0,15.96,7.139,15.96,15.96c0,8.813-7.15,15.96-15.96,15.96
		c-8.818,0-15.961-7.146-15.961-15.96C829.727,996.266,836.87,989.127,845.688,989.127z"/>
	<path id="ATL-52" fill="#FFFFFF" d="M732.869,892.845c21.153,0,38.305,17.132,38.305,38.305c0,21.153-17.151,38.305-38.305,38.305
		c-21.154,0-38.305-17.151-38.305-38.305C694.564,909.977,711.715,892.845,732.869,892.845z"/>
	<path id="ATL-50" fill="#FFFFFF" d="M507.234,764.124c10.567,0,19.152,8.565,19.152,19.152c0,10.586-8.585,19.152-19.152,19.152
		c-10.587,0-19.152-8.566-19.152-19.152C488.082,772.689,496.647,764.124,507.234,764.124z"/>
</g>
<g id="LAL">
	<path id="LAL-62" opacity="0.5" fill="#FFFFFF" enable-background="new    " d="M1861.049,285.389
		c29.967,0,54.264,24.271,54.264,54.265c0,29.967-24.297,54.265-54.264,54.265c-29.968,0-54.266-24.298-54.266-54.265
		C1806.783,309.659,1831.081,285.389,1861.049,285.389z"/>
	<path id="LAL-61" opacity="0.5" fill="#FFFFFF" enable-background="new    " d="M1748.23,227.412
		c21.172,0,38.305,17.132,38.305,38.305c0,21.154-17.133,38.304-38.305,38.304c-21.132,0-38.305-17.15-38.305-38.304
		C1709.926,244.545,1727.098,227.412,1748.23,227.412z"/>
	<path id="LAL-60" fill="#FFFFFF" d="M1635.412,307.733c17.628,0,31.92,14.276,31.92,31.92c0,17.628-14.292,31.921-31.92,31.921
		c-17.629,0-31.921-14.293-31.921-31.921C1603.491,322.011,1617.784,307.733,1635.412,307.733z"/>
	<path id="LAL-59" opacity="0.5" fill="#FFFFFF" enable-background="new    " d="M1522.596,388.055
		c14.103,0,25.536,11.421,25.536,25.536c0,14.103-11.434,25.536-25.536,25.536s-25.537-11.434-25.537-25.536
		C1497.059,399.476,1508.493,388.055,1522.596,388.055z"/>
	<path id="LAL-58" opacity="0.5" fill="#FFFFFF" enable-background="new    " d="M1409.775,439.647
		c26.441,0,47.881,21.416,47.881,47.881c0,26.441-21.439,47.881-47.881,47.881s-47.88-21.439-47.88-47.881
		C1361.896,461.063,1383.334,439.647,1409.775,439.647z"/>
	<path id="LAL-57" opacity="0.5" fill="#FFFFFF" enable-background="new    " d="M1296.959,458.8
		c15.865,0,28.729,12.85,28.729,28.729c0,15.864-12.863,28.729-28.729,28.729c-15.864,0-28.729-12.864-28.729-28.729
		C1268.23,471.649,1281.094,458.8,1296.959,458.8z"/>
	<path id="LAL-56" fill="#FFFFFF" d="M1184.142,545.504c8.812,0,15.96,7.139,15.96,15.96c0,8.813-7.147,15.96-15.96,15.96
		c-8.813,0-15.961-7.146-15.961-15.96C1168.181,552.643,1175.328,545.504,1184.142,545.504z"/>
	<path id="LAL-55" opacity="0.5" fill="#FFFFFF" enable-background="new    " d="M1071.323,458.8
		c15.864,0,28.729,12.85,28.729,28.729c0,15.864-12.864,28.729-28.729,28.729s-28.729-12.864-28.729-28.729
		C1042.595,471.649,1055.457,458.8,1071.323,458.8z"/>
	<path id="LAL-50" opacity="0.5" fill="#FFFFFF" enable-background="new    " d="M507.234,748.164
		c19.374,0,35.112,15.704,35.112,35.112c0,19.407-15.738,35.112-35.112,35.112c-19.408,0-35.112-15.705-35.112-35.112
		C472.122,763.868,487.826,748.164,507.234,748.164z"/>
</g>
</svg>
